<svg height="429pt" viewBox="0 0 429.96113 429" width="429pt" xmlns="http://www.w3.org/2000/svg"><path d="m60 245.480469c0-113.199219 91.800781-205 205-205 27.226562-.011719 54.183594 5.390625 79.300781 15.902343-36.519531-29.753906-82.195312-45.96875-129.300781-45.902343-113.199219 0-205 91.800781-205 205 .011719 82.589843 49.550781 157.121093 125.699219 189.101562-47.941407-38.898437-75.761719-97.363281-75.699219-159.101562zm0 0" fill="#d4e1f4"/><path d="m215 .480469c-86.960938-.015625-165.363281 52.363281-198.640625 132.707031-33.273437 80.34375-14.867187 172.820312 46.640625 234.292969 83.949219 83.949219 220.054688 83.949219 304 0 83.949219-83.945313 83.949219-220.050781 0-304-40.222656-40.453125-94.953125-63.136719-152-63zm0 410c-107.5 0-195-87.5-195-195s87.5-195 195-195 195 87.5 195 195-87.5 195-195 195zm0 0" fill="#0635c9"/><path d="m322.800781 205.480469h-95.699219v-95.699219c0-5.523438-4.476562-10-10-10-5.523437 0-10 4.476562-10 10v95.699219h-100.601562c-5.523438 0-10 4.476562-10 10 0 5.523437 4.476562 10 10 10h100.699219v100.699219c0 5.523437 4.480469 10 10 10 5.523437 0 10-4.476563 10-10v-100.699219h95.703125c5.519531-.027344 9.976562-4.527344 9.949218-10.050781-.027343-5.519532-4.527343-9.976563-10.050781-9.949219zm0 0" fill="#1ae5be"/></svg>