<svg height="512pt" viewBox="-57 0 512 512.02227" width="512pt" xmlns="http://www.w3.org/2000/svg"><path d="m281.609375 247.746094v.085937c.011719 5.289063.640625 10.558594 1.878906 15.699219-52.722656 35.46875-121.664062 35.5-174.421875.085938 1.261719-5.167969 1.921875-10.464844 1.964844-15.785157v-.085937c-34.105469-21.628906-56.117188-57.976563-59.480469-98.21875 4.695313-69.121094 67.671875-123.90625 144.726563-123.90625 77.054687 0 140.03125 54.785156 144.726562 123.90625-3.386718 40.214844-25.351562 76.539062-59.394531 98.21875zm0 0" fill="#cad9fc"/><path d="m303.882812 299.03125c12.152344 26.769531 19.078126 55.621094 20.394532 84.992188 0 65.960937-57.34375 93.867187-128 93.867187-4.09375 0-8.191406-.085937-12.203125-.34375h-.851563c-64.511718-3.328125-114.945312-31.65625-114.945312-93.523437 1.296875-29.3125 8.191406-58.101563 20.308594-84.824219 10.046874-9.691407 17.144531-22.027344 20.480468-35.582031 1.261719-5.167969 1.921875-10.464844 1.964844-15.785157v-.085937c-34.105469-21.628906-56.117188-57.976563-59.480469-98.21875 4.4375-65.28125 60.84375-117.761719 132.097657-123.394532 4.097656-.339843 8.363281-.511718 12.628906-.511718 77.054687 0 140.03125 54.785156 144.726562 123.90625-3.386718 40.214844-25.351562 76.539062-59.394531 98.21875v.085937c.011719 5.289063.640625 10.558594 1.878906 15.699219 3.304688 13.523438 10.375 25.832031 20.394531 35.5zm0 0" fill="#cad9fc"/><path d="m278.625 299.03125c12.152344 26.769531 19.074219 55.621094 20.394531 84.992188 0 57.855468-44.117187 86.355468-102.570312 92.5-4.097657.511718-8.191407.769531-12.375 1.023437h-.851563c-64.511718-3.328125-114.945312-31.65625-114.945312-93.523437 1.296875-29.3125 8.191406-58.101563 20.308594-84.824219 10.046874-9.691407 17.144531-22.027344 20.480468-35.582031 1.261719-5.167969 1.921875-10.464844 1.964844-15.785157v-.085937c-34.105469-21.628906-56.117188-57.976563-59.480469-98.21875 4.4375-65.28125 60.84375-117.761719 132.097657-123.394532 4.351562.34375 8.535156.855469 12.800781 1.539063 65.109375 10.496094 115.113281 60.5 119.296875 121.855469-3.386719 40.214844-25.351563 76.539062-59.394532 98.21875v.085937c.011719 5.289063.640626 10.558594 1.878907 15.699219 3.304687 13.523438 10.375 25.832031 20.394531 35.5zm0 0" fill="#fff"/><path d="m278.625 299.03125c12.152344 26.769531 19.074219 55.621094 20.394531 84.992188.851563 23.132812-8.175781 45.535156-24.832031 61.609374-18.519531 17.664063-45.996094 27.5625-77.738281 30.890626-31.574219-3.328126-58.878907-13.140626-77.398438-30.550782-16.890625-16.078125-26.0625-38.644531-25.171875-61.949218 1.296875-29.3125 8.1875-58.101563 20.308594-84.824219 10.042969-9.691407 17.144531-22.027344 20.480469-35.582031 1.261719-5.167969 1.917969-10.464844 1.960937-15.785157v-.085937c-34.105468-21.628906-56.117187-57.976563-59.476562-98.21875 4.179687-61.355469 54.1875-111.359375 119.296875-121.855469 65.109375 10.496094 115.113281 60.5 119.296875 121.855469-3.386719 40.214844-25.351563 76.539062-59.394532 98.21875v.085937c.011719 5.289063.640626 10.558594 1.878907 15.699219 3.304687 13.523438 10.375 25.832031 20.394531 35.5zm0 0" fill="#e8edfc"/><path d="m341.34375 140.824219c0 73.042969-64.9375 132.265625-145.066406 132.265625-4.351563 0-8.617188-.171875-12.800782-.511719-74.152343-5.890625-132.265624-62.636719-132.265624-131.753906 0-69.121094 58.113281-125.867188 132.265624-131.757813 4.183594-.339844 8.449219-.511718 12.800782-.511718 80.128906 0 145.066406 59.222656 145.066406 132.269531zm0 0" fill="#cad9fc"/><path d="m315.746094 140.824219c0 65.105469-51.542969 119.207031-119.46875 130.214843-4.179688.683594-8.449219 1.195313-12.800782 1.539063-74.152343-5.890625-132.265624-62.636719-132.265624-131.753906 0-69.121094 58.113281-125.867188 132.265624-131.757813 4.351563.34375 8.621094.855469 12.800782 1.539063 67.925781 11.007812 119.46875 65.109375 119.46875 130.21875zm0 0" fill="#fff"/><path d="m315.746094 140.824219c0-71.917969-53.488282-130.21875-119.46875-130.21875-65.980469 0-119.464844 58.300781-119.464844 130.21875 0 71.914062 53.484375 130.214843 119.464844 130.214843 65.980468 0 119.46875-58.300781 119.46875-130.214843zm0 0" fill="#e8edfc"/><path d="m110.945312 110.957031h170.664063c9.425781 0 17.070313 7.640625 17.070313 17.066407 0 47.128906-38.207032 85.332031-85.335938 85.332031h-34.132812c-47.128907 0-85.332032-38.203125-85.332032-85.332031 0-9.425782 7.640625-17.066407 17.066406-17.066407zm0 0" fill="#e8edfc"/><path d="m110.945312 110.957031h145.066407c9.425781 0 17.066406 7.640625 17.066406 17.066407 0 47.128906-38.207031 85.332031-85.332031 85.332031h-8.535156c-47.128907 0-85.332032-38.203125-85.332032-85.332031 0-4.527344 1.796875-8.867188 4.996094-12.070313 3.203125-3.199219 7.542969-4.996094 12.070312-4.996094zm0 0" fill="#fff"/><path d="m162.144531 93.890625c-14.136719 0-25.601562-11.464844-25.601562-25.601563 0-14.136718 11.464843-25.601562 25.601562-25.601562s25.601563 11.464844 25.601563 25.601562c0 14.136719-11.464844 25.601563-25.601563 25.601563zm0 0" fill="#7facfa"/><path d="m230.410156 93.890625c-14.136718 0-25.597656-11.464844-25.597656-25.601563 0-14.136718 11.460938-25.601562 25.597656-25.601562 14.140625 0 25.601563 11.464844 25.601563 25.601562 0 14.136719-11.460938 25.601563-25.601563 25.601563zm0 0" fill="#7facfa"/><path d="m145.078125 473.621094c0 14.933594-18.945313 27.394531-43.605469 29.527344-2.523437.242187-5.058594.355468-7.59375.339843-28.246094 0-51.199218 0-51.199218-29.867187 0-15.957032 21.503906-29.011719 48.554687-29.78125l5.542969 3.074218zm0 0" fill="#fff"/><path d="m145.078125 473.621094c0 14.933594-18.945313 27.394531-43.605469 29.527344-19.371094-1.195313-33.195312-6.316407-33.195312-29.527344 0-11.691406 11.605468-21.929688 28.5-26.707032zm0 0" fill="#e8edfc"/><path d="m301.324219 443.839844c27.050781.769531 48.554687 13.824218 48.554687 29.78125 0 29.867187-22.957031 29.867187-51.199218 29.867187-28.246094 0-51.203126-13.398437-51.203126-29.867187" fill="#e8edfc"/><path d="m111.03125 247.746094v.085937c-.007812 6.238281-.898438 12.441407-2.648438 18.429688-3.582031 12.53125-10.414062 23.894531-19.796874 32.9375-7.433594 7.332031-16.5 12.800781-26.453126 15.960937-26.367187 8.019532-53.589843-6.230468-53.589843-59.136718.691406-39.375 9.402343-78.199219 25.601562-114.09375 8.453125-19.257813 18.441407-37.804688 29.867188-55.464844-8.445313 16.875-12.828125 35.488281-12.800781 54.359375.007812 6.253906.492187 12.503906 1.449218 18.6875 1.046875 6.808593 2.675782 13.519531 4.867188 20.050781l-.171875-.339844c-3.242188 7.703125-6.089844 15.5625-8.535157 23.550782 8.292969 16.621093 19.609376 31.554687 33.367188 44.03125 1.617188-6.917969 2.589844-13.976563 2.902344-21.074219 5.265625 5.761719 11.035156 11.042969 17.234375 15.785156 1.878906 1.449219 3.757812 2.816406 5.71875 4.097656.9375.765625 1.960937 1.449219 2.988281 2.132813zm0 0" fill="#fff"/><path d="m111.03125 247.746094v.085937c-.007812 6.238281-.898438 12.441407-2.648438 18.429688-3.582031 12.53125-10.414062 23.894531-19.796874 32.9375-7.433594 7.332031-16.5 12.800781-26.453126 15.960937-15.871093-5.71875-27.988281-23.894531-27.988281-59.136718.421875-33.011719 6.691407-65.6875 18.515625-96.511719 1.046875 6.808593 2.675782 13.519531 4.867188 20.050781l-.171875-.339844c-3.242188 7.703125-6.089844 15.5625-8.535157 23.550782 8.292969 16.621093 19.609376 31.554687 33.367188 44.03125 1.617188-6.917969 2.589844-13.976563 2.902344-21.074219 5.265625 5.761719 11.035156 11.042969 17.234375 15.785156 1.792969 1.792969 3.585937 3.582031 5.464843 5.289063.082032-.425782.167969-.765626.253907-1.191407.9375.765625 1.960937 1.449219 2.988281 2.132813zm0 0" fill="#fff"/><path d="m384.097656 256.023438c0 52.90625-27.222656 67.15625-53.675781 59.050781-10.007813-3.136719-19.113281-8.636719-26.539063-16.042969-9.304687-9.023438-16.101562-20.320312-19.710937-32.769531-1.679687-6-2.542969-12.199219-2.5625-18.429688v-.085937c.855469-.597656 1.792969-1.195313 2.648437-1.878906 2.132813-1.449219 4.179688-2.984376 6.226563-4.609376 6.015625-4.621093 11.609375-9.757812 16.726563-15.359374.398437 7.121093 1.367187 14.199218 2.902343 21.164062 13.761719-12.460938 25.101563-27.363281 33.449219-43.945312-2.445312-8.046876-5.292969-15.964844-8.53125-23.722657 2.230469-6.550781 3.859375-13.292969 4.863281-20.140625.957031-6.097656 1.445313-12.257812 1.449219-18.429687.027344-18.84375-4.355469-37.429688-12.800781-54.273438l.085937-.085937c11.414063 17.5625 21.375 36.027344 29.78125 55.210937 16.238282 35.976563 24.980469 74.882813 25.6875 114.347657zm0 0" fill="#e8edfc"/><path d="m358.496094 256.023438c0 35.242187-12.117188 53.332031-28.074219 59.050781-10.007813-3.136719-19.113281-8.636719-26.539063-16.042969-9.304687-9.023438-16.101562-20.320312-19.710937-32.769531-1.679687-6-2.542969-12.199219-2.5625-18.429688v-.085937c.855469-.597656 1.792969-1.195313 2.648437-1.878906.085938.425781.167969.769531.253907 1.195312 2.046875-1.878906 4.011719-3.753906 5.972656-5.804688 6.015625-4.621093 11.609375-9.757812 16.726563-15.359374.398437 7.121093 1.367187 14.199218 2.902343 21.164062 13.761719-12.460938 25.101563-27.363281 33.449219-43.945312-2.445312-8.046876-5.292969-15.964844-8.53125-23.722657 2.230469-6.550781 3.859375-13.292969 4.863281-20.140625 11.886719 30.898438 18.183594 63.664063 18.601563 96.769532zm0 0" fill="#fff"/><path d="m82.1875 246.804688c-1.210938 9.558593-6.074219 18.273437-13.570312 24.320312-4.585938 2.109375-9.859376 2.160156-14.484376.140625-4.628906-2.019531-8.175781-5.921875-9.75-10.71875-3.175781-9.453125-3.851562-19.566406-1.960937-29.355469 1.351563-9.632812 3.492187-19.136718 6.398437-28.417968 8.292969 16.621093 19.609376 31.554687 33.367188 44.03125zm0 0" fill="#e8edfc"/><path d="m85.003906 225.558594c-12.335937-13.199219-21.703125-28.878906-27.476562-45.996094zm0 0" fill="#ff5364"/><path d="m335.03125 179.394531c-5.785156 17.335938-15.277344 33.207031-27.820312 46.503907v-.167969l27.734374-46.507813c0 .085938.085938.085938.085938.171875zm0 0" fill="#ff5364"/><path d="m347.914062 260.546875c-1.570312 4.796875-5.117187 8.699219-9.746093 10.71875-4.628907 2.019531-9.898438 1.96875-14.488281-.140625-7.414063-6.003906-12.265626-14.609375-13.566407-24.0625 13.761719-12.460938 25.101563-27.363281 33.449219-43.945312 2.878906 9.164062 4.992188 18.554687 6.316406 28.074218 1.890625 9.789063 1.214844 19.902344-1.964844 29.355469zm0 0" fill="#e8edfc"/><path d="m85.089844 225.730469c-.3125 7.097656-1.285156 14.15625-2.902344 21.074219-13.757812-12.476563-25.074219-27.410157-33.367188-44.03125 2.445313-7.988282 5.292969-15.847657 8.535157-23.550782l.171875.339844c5.773437 17.117188 15.140625 32.796875 27.476562 45.996094zm0 0" fill="#cad9fc"/><path d="m51.210938 140.824219c0 13.167969 2.132812 26.25 6.316406 38.738281l-.171875-.339844c-3.242188 7.703125-6.089844 15.5625-8.535157 23.550782-9.5-18.882813-14.523437-39.703126-14.675781-60.84375 8.453125-19.257813 18.441407-37.804688 29.867188-55.464844-8.445313 16.875-12.828125 35.488281-12.800781 54.359375zm0 0" fill="#fff"/><path d="m85.003906 225.558594c-12.335937-13.199219-21.703125-28.878906-27.476562-45.996094zm0 0" fill="#e6e7e8"/><path d="m111.03125 247.746094v.085937c-.007812 6.238281-.898438 12.441407-2.648438 18.429688-9.386718-5.550781-18.167968-12.070313-26.195312-19.457031 1.617188-6.917969 2.589844-13.976563 2.902344-21.074219 7.699218 8.382812 16.414062 15.78125 25.941406 22.015625zm0 0" fill="#e8edfc"/><path d="m343.5625 203.117188c-8.347656 16.582031-19.6875 31.484374-33.449219 43.945312-1.535156-6.964844-2.503906-14.042969-2.902343-21.164062 12.542968-13.296876 22.035156-29.167969 27.820312-46.503907 3.238281 7.757813 6.085938 15.675781 8.53125 23.722657zm0 0" fill="#cad9fc"/><path d="m281.609375 247.746094c9.382813-6.230469 17.976563-13.5625 25.601563-21.847656.398437 7.121093 1.367187 14.199218 2.902343 21.164062-7.964843 7.273438-16.660156 13.707031-25.941406 19.199219-1.679687-6-2.542969-12.199219-2.5625-18.429688zm0 0" fill="#e8edfc"/><path d="m334.945312 179.222656c0 .085938.085938.085938.085938.171875-5.785156 17.335938-15.277344 33.207031-27.820312 46.503907v-.167969zm0 0" fill="#e6e7e8"/><path d="m358.410156 141.675781c-.15625 21.347657-5.238281 42.375-14.847656 61.441407-2.445312-8.046876-5.292969-15.964844-8.53125-23.722657 10.273438-30.578125 7.9375-63.992187-6.488281-92.84375l.085937-.085937c11.414063 17.5625 21.375 36.027344 29.78125 55.210937zm0 0" fill="#e8edfc"/><path d="m274.1875 445.632812c-18.519531 17.664063-45.996094 27.5625-77.738281 30.890626-31.574219-3.328126-58.878907-13.140626-77.398438-30.550782 24.355469 10.507813 50.710938 15.574219 77.226563 14.851563 26.773437.765625 53.382812-4.421875 77.910156-15.191407zm0 0" fill="#cad9fc"/><path d="m384.863281 417.21875c4.753907 11.800781 4.617188 25.007812-.375 36.707031-4.996093 11.703125-14.4375 20.9375-26.246093 25.667969-2.945313 1.222656-6.003907 2.136719-9.132813 2.734375.539063-2.871094.796875-5.785156.769531-8.707031 0-2.46875-.523437-4.914063-1.535156-7.167969-5.292969-12.542969-24.152344-21.929687-47.019531-22.613281 14.0625-14.429688 22.195312-33.617188 22.78125-53.757813v-.085937c7.59375-2.738282 15.75-3.53125 23.722656-2.304688.40625.085938.808594.199219 1.195313.339844.046874 0 .085937-.035156.085937-.082031 2.949219-2.140625 6.089844-4 9.386719-5.546875 9.542968-4.339844 19.894531-6.609375 30.378906-6.65625-3.710938 11.09375-6.3125 22.527344-7.765625 34.132812 1.4375 2.347656 2.691406 4.800782 3.753906 7.339844zm0 0" fill="#7facfa"/><path d="m348.34375 466.453125c-5.292969-12.542969-24.152344-21.929687-47.019531-22.613281 14.0625-14.429688 22.195312-33.617188 22.78125-53.757813v-.085937c7.59375-2.738282 15.75-3.53125 23.722656-2.304688.40625.085938.808594.199219 1.195313.339844.046874 0 .085937-.035156.085937-.082031 2.949219-2.140625 6.089844-4 9.386719-5.546875-2.597656 8.996094-4.480469 18.183594-5.632813 27.476562 1.4375 2.347656 2.691407 4.800782 3.753907 7.339844 6.71875 16.660156 3.519531 35.683594-8.273438 49.234375zm0 0" fill="#a4c2f7"/><path d="m143.457031 366.957031c-3.84375 9.628907-9.65625 18.347657-17.066406 25.597657-5.113281 5.355468-11.230469 9.648437-18.007813 12.628906-12.972656 5.664062-28.125 2.285156-37.460937-8.359375-14.164063-14.082031-16.980469-34.21875 4.269531-55.46875 7.25-7.410157 15.96875-13.226563 25.597656-17.066407zm0 0" fill="#fff"/><path d="m143.457031 366.957031c-3.84375 9.628907-9.65625 18.347657-17.066406 25.597657-5.113281 5.355468-11.230469 9.648437-18.007813 12.628906-4.433593-2.03125-8.457031-4.867188-11.859374-8.359375-14.164063-14.082031-16.980469-34.21875 4.265624-55.46875 2.816407-2.898438 5.871094-5.554688 9.132813-7.9375zm0 0" fill="#e8edfc"/><path d="m291.722656 324.289062c9.65625 3.835938 18.402344 9.648438 25.675782 17.066407 21.234374 21.230469 18.425781 41.378906 4.269531 55.527343-14.15625 14.148438-34.304688 16.964844-55.535157-4.265624-7.414062-7.28125-13.226562-16.027344-17.066406-25.679688" fill="#e8edfc"/><path d="m238.945312 162.15625h-85.335937c-4.710937 0-8.53125-3.820312-8.53125-8.535156 0-4.710938 3.820313-8.53125 8.53125-8.53125h85.335937c4.710938 0 8.53125 3.820312 8.53125 8.53125 0 4.714844-3.820312 8.535156-8.53125 8.535156zm0 0" fill="#7facfa"/><path d="m162.144531 179.222656c-4.714843 0-8.535156-3.820312-8.535156-8.535156v-34.132812c0-4.710938 3.820313-8.53125 8.535156-8.53125 4.710938 0 8.535157 3.820312 8.535157 8.53125v34.132812c0 4.714844-3.824219 8.535156-8.535157 8.535156zm0 0" fill="#7facfa"/><path d="m187.746094 170.6875c-4.714844 0-8.535156-3.820312-8.535156-8.53125v-17.066406c0-4.714844 3.820312-8.535156 8.535156-8.535156 4.710937 0 8.53125 3.820312 8.53125 8.535156v17.066406c0 4.710938-3.820313 8.53125-8.53125 8.53125zm0 0" fill="#7facfa"/><path d="m.0117188 256.023438c.5937502-38.203126 8.6289062-75.925782 23.6523432-111.054688 9.097657-22.023438 20.210938-43.164062 33.195313-63.144531l14.300781 9.316406c-12.40625 19.09375-23.023437 39.296875-31.707031 60.347656-14.179687 33.0625-21.777344 68.566407-22.375 104.535157zm0 0" fill="#fff"/><g fill="#428dff"><path d="m93.878906 512.023438c28.808594 0 52.207032-12.492188 58.195313-29.6875 29.21875 5.449218 59.191406 5.449218 88.40625 0 5.992187 17.195312 29.390625 29.6875 58.199219 29.6875 23.429687 0 49.414062-.09375 57.28125-22.605469 1.851562-.53125 3.671874-1.164063 5.453124-1.894531 13.910157-5.570313 25.03125-16.445313 30.917969-30.222657 5.886719-13.777343 6.050781-29.332031.460938-43.234375-.828125-2.03125-1.785157-4.011718-2.867188-5.921875 1.488281-10.027343 3.835938-19.914062 7.011719-29.539062.917969-2.632813.496094-5.542969-1.132812-7.800781-1.710938-2.160157-4.285157-3.457032-7.039063-3.550782-14.777344-.140625-29.285156 3.949219-41.816406 11.785156-2.085938-.25-4.183594-.378906-6.289063-.382812.441406-2.335938.671875-4.703125.683594-7.074219-.769531-12.574219-6.144531-24.425781-15.101562-33.28125-1.464844-5.785156-3.171876-11.652343-5.121094-17.605469 7.113281 3.234376 14.816406 4.976563 22.628906 5.121094 11.460938 0 48.84375-5.058594 48.84375-69.761718 0-75.679688-35.617188-141.652344-56.847656-174.214844-.136719-.214844-.359375-.316406-.503906-.511719-27.527344-50.90625-81.101563-82.25-138.964844-81.3046875-58.109375-.9843755-111.886719 30.6171875-139.304688 81.8593745l-.113281-.078124c-12.984375 19.984374-24.097656 41.121093-33.195313 63.148437l-3.25 8.113281c-1.574218 4.371094.636719 9.199219 4.972657 10.863282 4.335937 1.660156 9.207031-.449219 10.960937-4.753907l3.105469-7.679687c1.046875-2.558594 2.234375-5.117188 3.351563-7.679688.289062 11.78125 2.195312 23.460938 5.660156 34.722656-6.945313 16.507813-11.820313 33.8125-14.507813 51.515626-2.105469 11.339843-1.210937 23.027343 2.601563 33.914062 3.324218 7.769531 9.78125 13.769531 17.777344 16.511719 2.339843.742187 4.777343 1.125 7.234374 1.132812 4.035157.007813 7.996094-1.09375 11.445313-3.191406 10.671875-6.433594 15.957031-20.480469 18.542969-34.765625 3.410156 2.941406 6.976562 5.75 10.691406 8.421875-2.375 31.730469-30.15625 56.628906-53.367188 56.628906-20.226562-.007812-31.804687-19.207031-31.804687-52.683593.085937-10.984376.898437-21.953126 2.421875-32.828126.519531-4.597656-2.621094-8.804687-7.175781-9.617187-2.261719-.394531-4.582031.160156-6.421875 1.53125-1.839844 1.375-3.03125 3.441406-3.296875 5.722656-1.640625 11.660157-2.5078128 23.414063-2.5937502 35.191407 0 64.699218 37.3828122 69.75 48.8437502 69.757812 7.75-.136719 15.390625-1.847656 22.460937-5.023438-1.921875 5.878907-3.628906 11.757813-5.121094 17.628907-8.902343 8.847656-14.234374 20.664062-14.984374 33.195312-.015626 9.664063 3.371093 19.03125 9.566406 26.453125 1.632812 13.980469 6.570312 27.371094 14.402344 39.0625-24.207032 4.953125-41.035157 19.175782-41.035157 36.523438 0 38.402344 31.734375 38.402344 59.734375 38.402344zm204.800782-17.066407c-20.796876 0-36.992188-8.175781-41.386719-16.820312 17.296875-4.859375 33.269531-13.589844 46.699219-25.523438 22.121093 1.46875 37.351562 11.894531 37.351562 21.007813.023438 2.203125-.144531 4.402344-.511719 6.570312-.0625.207032-.113281.417969-.152343.632813-2.707032 12.867187-14.269532 14.132812-42 14.132812zm73.914062-86.09375c.003906.441407.039062.886719.109375 1.320313.003906.4375.042969.875.113281 1.308594.140625.675781.371094 1.328124.683594 1.945312.074219.273438.167969.539062.28125.800781 1.203125 1.976563 2.261719 4.039063 3.164062 6.171875 7.707032 18.914063-.480468 40.574219-18.773437 49.664063-2.125-15.730469-18.242187-28.390625-40.789063-32.957031 7.835938-11.695313 12.773438-25.085938 14.40625-39.066407.398438-.496093.851563-.972656 1.242188-1.476562 1.078125-.210938 2.136719-.410157 3.191406-.535157 1.238282 2.535157 3.648438 4.296876 6.4375 4.703126 2.792969.410156 5.605469-.589844 7.515625-2.664063 1.195313-1.1875 2.5-2.261719 3.890625-3.210937 6.875-4.835938 14.75-8.058594 23.042969-9.429688-2.039063 7.695312-3.546875 15.523438-4.515625 23.425781zm-28.816406-100.148437c-23.230469 0-51.03125-24.941406-53.375-56.6875 3.609375-2.558594 7.0625-5.316406 10.398437-8.164063 2.5625 14.234375 7.871094 28.160157 18.476563 34.558594 3.453125 2.097656 7.414062 3.203125 11.453125 3.199219 2.457031-.003906 4.894531-.390625 7.234375-1.140625 8.003906-2.75 14.46875-8.761719 17.785156-16.546875 3.800781-10.882813 4.683594-22.574219 2.558594-33.902344-2.667969-17.5625-7.492188-34.726562-14.363282-51.109375 3.597657-11.535156 5.550782-23.519531 5.804688-35.597656 16.304688 35.375 25.09375 73.75 25.8125 112.699219 0 33.476562-11.585938 52.675781-31.785156 52.691406zm-9.472656-106.402344c3.226562 9.78125 5.609374 19.824219 7.117187 30.011719 1.707031 8.246093 1.25 16.792969-1.324219 24.808593-1.347656 3.265626-3.984375 5.828126-7.285156 7.082032-1.558594.578125-3.292969.429687-4.730469-.402344-6.109375-3.6875-10.605469-16.988281-12.066406-34.984375 7.085937-8.117187 13.21875-17.011719 18.289063-26.515625zm-270.113282 61.507812c-1.425781.832032-3.152344.976563-4.695312.394532-3.296875-1.238282-5.933594-3.792969-7.277344-7.050782-2.582031-8.015624-3.042969-16.566406-1.339844-24.8125 1.519532-10.308593 3.933594-20.464843 7.21875-30.355468 5.039063 9.5 11.148438 18.394531 18.210938 26.507812-1.425782 18.183594-5.949219 31.605469-12.117188 35.316406zm53.945313-1.867187c7.742187 4.246094 15.824219 7.835937 24.167969 10.726563 4.394531 1.332031 9.054687-1.050782 10.546874-5.390626 1.492188-4.339843-.71875-9.085937-5-10.738281-52.703124-18.132812-88.105468-64.640625-88.105468-115.726562 0-68.226563 61.25-123.734375 136.53125-123.734375s136.535156 55.507812 136.535156 123.734375c-.296875 29.414062-11.644531 57.644531-31.789062 79.085937-.085938.09375-.167969.167969-.253907.273438-15.386719 16.578125-34.652343 29.074218-56.066406 36.367187-2.988281.90625-5.242187 3.375-5.878906 6.433594-.632813 3.058594.453125 6.21875 2.835937 8.238281 2.382813 2.023438 5.675782 2.582032 8.589844 1.457032 8.367188-2.902344 16.472656-6.5 24.234375-10.761719 3.089844 15.753906 10.757813 30.25 22.042969 41.667969 2.328125 5.53125 4.429687 11.007812 6.339844 16.453124-2.621094-1.398437-5.320313-2.640624-8.089844-3.71875-2.847656-1.089843-6.058594-.578124-8.425782 1.339844-2.367187 1.921875-3.53125 4.960938-3.050781 7.972656.480469 3.011719 2.527344 5.535157 5.375 6.625 8.53125 3.402344 16.261719 8.546876 22.691407 15.105469 7.308593 6.210938 11.9375 15.007813 12.910156 24.550781-.097656 7.246094-3.234375 14.113282-8.644532 18.933594-4.789062 5.4375-11.664062 8.582032-18.910156 8.644532-9.523437-.992188-18.296875-5.617188-24.5-12.910157-6.558594-6.429687-11.703125-14.160156-15.109375-22.691406-1.773437-4.265625-6.621093-6.347656-10.933593-4.695313-4.316407 1.652344-6.53125 6.4375-5 10.796876 4.257812 10.769531 10.71875 20.53125 18.96875 28.65625 9.269531 10.515624 22.308593 16.953124 36.292968 17.921874h.75c4.527344-.082031 9-.945312 13.226563-2.5625-18.875 49.375-84.324219 55.347657-114.140625 55.347657s-95.257813-5.972657-114.097656-55.355469c4.226562 1.617188 8.703124 2.480469 13.226562 2.558594h.75c13.984375-.964844 27.023438-7.40625 36.292969-17.917969 8.25-8.125 14.710937-17.886719 18.96875-28.65625 1.191406-2.867187.730469-6.15625-1.203125-8.585937-1.933594-2.429688-5.035156-3.617188-8.097656-3.101563-3.0625.519531-5.601563 2.65625-6.628907 5.585937-3.40625 8.535157-8.554687 16.265626-15.113281 22.699219-6.214844 7.304688-15.003906 11.929688-24.542969 12.910157-7.234375-.113282-14.089843-3.246094-18.910156-8.644532-5.410156-4.820312-8.546875-11.6875-8.644531-18.933594.964844-9.554687 5.59375-18.367187 12.910156-24.585937 6.433594-6.558594 14.160156-11.699219 22.691406-15.101563 2.847656-1.089843 4.898438-3.617187 5.378906-6.628906.476563-3.011718-.683593-6.050781-3.050781-7.96875-2.371093-1.921875-5.582031-2.433594-8.429687-1.34375-2.796875 1.089844-5.523438 2.34375-8.167969 3.761719 1.949219-5.511719 4.046875-10.988281 6.34375-16.355469 11.335937-11.414062 19.054687-25.917968 22.183594-41.695312zm-29.574219 190.660156c13.433594 11.933594 29.402344 20.660157 46.703125 25.523438-4.394531 8.644531-20.59375 16.820312-41.386719 16.820312-32.238281 0-42.667968-1.65625-42.667968-21.335937 0-9.113282 15.230468-19.539063 37.351562-21.007813zm0 0"/><path d="m12.8125 195.4375c.414062.351562.878906.640625 1.382812.851562.523438.222657 1.0625.410157 1.609376.5625 2.203124.480469 4.5.136719 6.460937-.972656.929687-.582031 1.738281-1.34375 2.382813-2.234375 2.007812-2.683593 2.273437-6.285156.679687-9.234375-.585937-.953125-1.339844-1.796875-2.226563-2.484375-2.65625-2.183593-6.378906-2.519531-9.386718-.851562-1.96875 1.203125-3.421875 3.09375-4.078125 5.308593-.578125 2.242188-.257813 4.625.894531 6.636719l1 1.316407c.375.421874.804688.792968 1.28125 1.101562zm0 0"/><path d="m213.34375 221.890625c51.816406-.0625 93.804688-42.050781 93.867188-93.867187 0-14.140626-11.460938-25.601563-25.601563-25.601563h-170.664063c-14.140624 0-25.601562 11.460937-25.601562 25.601563.0625 51.816406 42.050781 93.804687 93.867188 93.867187zm-110.933594-93.867187c0-4.714844 3.820313-8.535157 8.535156-8.535157h170.664063c4.714844 0 8.535156 3.820313 8.535156 8.535157-.046875 42.394531-34.402343 76.75-76.800781 76.800781h-34.132812c-42.394532-.050781-76.753907-34.40625-76.800782-76.800781zm0 0"/><path d="m162.144531 93.890625c14.136719 0 25.601563-11.464844 25.601563-25.601563 0-14.136718-11.464844-25.601562-25.601563-25.601562s-25.601562 11.464844-25.601562 25.601562c0 14.136719 11.464843 25.601563 25.601562 25.601563zm0-34.136719c4.710938 0 8.535157 3.820313 8.535157 8.535156 0 4.710938-3.824219 8.535157-8.535157 8.535157-4.714843 0-8.535156-3.824219-8.535156-8.535157 0-4.714843 3.820313-8.535156 8.535156-8.535156zm0 0"/><path d="m230.410156 93.890625c14.140625 0 25.601563-11.464844 25.601563-25.601563 0-14.136718-11.460938-25.601562-25.601563-25.601562-14.136718 0-25.597656 11.464844-25.597656 25.601562 0 14.136719 11.460938 25.601563 25.597656 25.601563zm0-34.136719c4.714844 0 8.535156 3.820313 8.535156 8.535156 0 4.710938-3.820312 8.535157-8.535156 8.535157-4.710937 0-8.53125-3.824219-8.53125-8.535157 0-4.714843 3.820313-8.535156 8.53125-8.535156zm0 0"/></g></svg>