<?xml version="1.0" encoding="UTF-8"?>
<svg xmlns="http://www.w3.org/2000/svg" xmlns:xlink="http://www.w3.org/1999/xlink" width="512" height="512" viewBox="0 0 60 60" version="1.1"><!-- Generator: Sketch 51.3 (57544) - http://www.bohemiancoding.com/sketch --><title>006 - Family Tree</title><desc>Created with Sketch.</desc><defs/><g id="Page-1" stroke="none" stroke-width="1" fill="none" fill-rule="evenodd"><g id="006---Family-Tree" fill-rule="nonzero"><path d="M19,38 C19.0005838,40.1219108 18.1579165,42.1570813 16.6574989,43.6574989 C15.1570813,45.1579165 13.1219108,46.0005838 11,46 C10.4967644,45.9994368 9.99464802,45.9525726 9.5,45.86 C5.72806663,45.1390137 3.00009984,41.8402217 3.00009984,38 C3.00009984,34.1597783 5.72806663,30.8609863 9.5,30.14 C9.99464802,30.0474274 10.4967644,30.0005632 11,30 C13.1219108,29.9994162 15.1570813,30.8420835 16.6574989,32.3425011 C18.1579165,33.8429187 19.0005838,35.8780892 19,38 Z" id="Shape" fill="#7FACFA"/><ellipse id="Oval" fill="#A4C2F7" cx="9.5" cy="38" rx="6.5" ry="7.86"/><path d="M17,18 C17.0005838,20.1219108 16.1579165,22.1570813 14.6574989,23.6574989 C13.1570813,25.1579165 11.1219108,26.0005838 9,26 C8.49676445,25.9994368 7.99464802,25.9525726 7.5,25.86 C3.72806663,25.1390137 1.00009984,21.8402217 1.00009984,18 C1.00009984,14.1597783 3.72806663,10.8609863 7.5,10.14 C7.99464802,10.0474274 8.49676445,10.0005632 9,10 C11.1219108,9.99941623 13.1570813,10.8420835 14.6574989,12.3425011 C16.1579165,13.8429187 17.0005838,15.8780892 17,18 Z" id="Shape" fill="#7FACFA"/><ellipse id="Oval" fill="#A4C2F7" cx="7.5" cy="18" rx="6.5" ry="7.86"/><path d="M57,38 C57.0005838,40.1219108 56.1579165,42.1570813 54.6574989,43.6574989 C53.1570813,45.1579165 51.1219108,46.0005838 49,46 C48.4967644,45.9994368 47.994648,45.9525726 47.5,45.86 C43.7280666,45.1390137 41.0000998,41.8402217 41.0000998,38 C41.0000998,34.1597783 43.7280666,30.8609863 47.5,30.14 C47.994648,30.0474274 48.4967644,30.0005632 49,30 C51.1219108,29.9994162 53.1570813,30.8420835 54.6574989,32.3425011 C56.1579165,33.8429187 57.0005838,35.8780892 57,38 Z" id="Shape" fill="#7FACFA"/><ellipse id="Oval" fill="#A4C2F7" cx="47.5" cy="38" rx="6.5" ry="7.86"/><path d="M59,18 C59.0005838,20.1219108 58.1579165,22.1570813 56.6574989,23.6574989 C55.1570813,25.1579165 53.1219108,26.0005838 51,26 C50.4967644,25.9994368 49.994648,25.9525726 49.5,25.86 C45.7280666,25.1390137 43.0000998,21.8402217 43.0000998,18 C43.0000998,14.1597783 45.7280666,10.8609863 49.5,10.14 C49.994648,10.0474274 50.4967644,10.0005632 51,10 C53.1219108,9.99941623 55.1570813,10.8420835 56.6574989,12.3425011 C58.1579165,13.8429187 59.0005838,15.8780892 59,18 Z" id="Shape" fill="#7FACFA"/><ellipse id="Oval" fill="#A4C2F7" cx="49.5" cy="18" rx="6.5" ry="7.86"/><path d="M38,9 C38.0005838,11.1219108 37.1579165,13.1570813 35.6574989,14.6574989 C34.1570813,16.1579165 32.1219108,17.0005838 30,17 C29.4967644,16.9994368 28.994648,16.9525726 28.5,16.86 C24.7280666,16.1390137 22.0000998,12.8402217 22.0000998,9 C22.0000998,5.15977832 24.7280666,1.86098627 28.5,1.14 C28.994648,1.04742743 29.4967644,1.00056323 30,1 C32.1219108,0.999416234 34.1570813,1.84208349 35.6574989,3.34250108 C37.1579165,4.84291867 38.0005838,6.87808917 38,9 Z" id="Shape" fill="#7FACFA"/><ellipse id="Oval" fill="#A4C2F7" cx="28.5" cy="9" rx="6.5" ry="7.86"/><path d="M16.81,43.5 L11,46.58 L10.94,46.55 L5.19,43.5 C5.51379874,42.2369221 6.24483719,41.1157622 7.27,40.31 C7.8113592,39.8695821 8.42796489,39.5307878 9.09,39.31 L12.91,39.31 C14.8334961,39.9594759 16.2999162,41.5349374 16.81,43.5 Z" id="Shape" fill="#7FACFA"/><path d="M14.81,44.5 L10.94,46.55 L5.19,43.5 C5.51379874,42.2369221 6.24483719,41.1157622 7.27,40.31 L10.91,40.31 C12.8334961,40.9594759 14.2999162,42.5349374 14.81,44.5 Z" id="Shape" fill="#A4C2F7"/><circle id="Oval" fill="#E8EDFC" cx="11" cy="37" r="3"/><path d="M14.81,23.5 L9,26.67 L8.92,26.62 L3.19,23.5 C3.51379874,22.2369221 4.24483719,21.1157622 5.27,20.31 C5.8113592,19.8695821 6.42796489,19.5307878 7.09,19.31 L10.91,19.31 C12.8334961,19.9594759 14.2999162,21.5349374 14.81,23.5 Z" id="Shape" fill="#A4C2F7"/><path d="M12.81,24.5 L8.92,26.62 L3.19,23.5 C3.51379874,22.2369221 4.24483719,21.1157622 5.27,20.31 L8.91,20.31 C10.8334961,20.9594759 12.2999162,22.5349374 12.81,24.5 Z" id="Shape" fill="#E8EDFC"/><circle id="Oval" fill="#E8EDFC" cx="9" cy="17" r="3"/><path d="M54.81,43.5 L49,46.71 L48.9,46.66 L43.19,43.5 C43.5137987,42.2369221 44.2448372,41.1157622 45.27,40.31 C45.8113592,39.8695821 46.4279649,39.5307878 47.09,39.31 L50.91,39.31 C52.8334961,39.9594759 54.2999162,41.5349374 54.81,43.5 Z" id="Shape" fill="#A4C2F7"/><path d="M52.81,44.5 L48.9,46.66 L43.19,43.5 C43.5137987,42.2369221 44.2448372,41.1157622 45.27,40.31 L48.91,40.31 C50.8334961,40.9594759 52.2999162,42.5349374 52.81,44.5 Z" id="Shape" fill="#E8EDFC"/><circle id="Oval" fill="#E8EDFC" cx="49" cy="37" r="3"/><path d="M56.81,23.5 L51,26.46 L50.98,26.45 L45.19,23.5 C45.5137987,22.2369221 46.2448372,21.1157622 47.27,20.31 C47.8113592,19.8695821 48.4279649,19.5307878 49.09,19.31 L52.91,19.31 C54.8334961,19.9594759 56.2999162,21.5349374 56.81,23.5 Z" id="Shape" fill="#A4C2F7"/><path d="M54.81,24.5 L50.98,26.45 L45.19,23.5 C45.5137987,22.2369221 46.2448372,21.1157622 47.27,20.31 L50.91,20.31 C52.8334961,20.9594759 54.2999162,22.5349374 54.81,24.5 Z" id="Shape" fill="#CAD9FC"/><circle id="Oval" fill="#E8EDFC" cx="51" cy="17" r="3"/><path d="M35.81,14.5 L33.81,15.49 L29.83,17.46 L24.19,14.5 C24.5137987,13.2369221 25.2448372,12.1157622 26.27,11.31 C26.8113592,10.8695821 27.4279649,10.5307878 28.09,10.31 L31.91,10.31 C33.8334961,10.9594759 35.2999162,12.5349374 35.81,14.5 Z" id="Shape" fill="#CAD9FC"/><path d="M33.81,15.49 L29.83,17.46 L24.19,14.5 C24.5137987,13.2369221 25.2448372,12.1157622 26.27,11.31 L29.91,11.31 C31.8304688,11.958436 33.2960617,13.5292509 33.81,15.49 Z" id="Shape" fill="#E8EDFC"/><circle id="Oval" fill="#E8EDFC" cx="30" cy="8" r="3"/><path d="M33.28,24.77 C32.867307,24.9105206 32.4357969,24.9880576 32,25 C29.41,25 30.55,18.27 30.91,16.45 L32.91,16.45 C32.59,18.07 31.65,23.59 33.28,24.77 Z" id="Shape" fill="#CAD9FC"/><path d="M33.5,58.13 C32.2783203,58.117541 31.0736618,58.4169846 30,59 C29.6904504,58.7995057 29.3536676,58.6445856 29,58.54 C30.4662792,58.151297 31.987617,58.0126862 33.5,58.13 Z" id="Shape" fill="#CB8252"/><path d="M39.83,34.84 C40.59,34.58 41.32,34.29 42,34 L41,39 C33,39 33,43 33,43 L33,51 C33,51 33,55 37,55 C41,55 42,59 42,59 C42,59 41.14,58.81 39.87,58.61 C39.1937895,56.4832438 37.2314865,55.0286414 35,55 C31,55 31,51 31,51 L28.4375,39.0938 L39.83,34.84 Z" id="Shape" fill="#CAD9FC"/><path d="M34.5,35.64 C33.859565,35.723272 33.2112636,35.7266311 32.57,35.65 C31.7842479,35.5749911 31.0729305,35.1533339 30.63,34.5 C30.0670616,33.6061744 30.1437705,32.4515032 30.82,31.64 C31.2493626,31.1357983 31.7596723,30.7065975 32.33,30.37 C35.74,28.18 39.63,26.28 43.82,24.09 L41.92,21.11 C42.47,20.73 42.93,20.39 43.29,20.13 L45.82,24.09 C41.63,26.28 37.74,28.18 34.33,30.37 C33.7596723,30.7065975 33.2493626,31.1357983 32.82,31.64 C32.1437705,32.4515032 32.0670616,33.6061744 32.63,34.5 C33.0581679,35.1335697 33.7406752,35.5496437 34.5,35.64 Z" id="Shape" fill="#CAD9FC"/><path d="M39.87,58.61 C37.7677917,58.2395255 35.6339876,58.0787365 33.5,58.13 C31.987617,58.0126862 30.4662792,58.151297 29,58.54 C27.5337208,58.151297 26.012383,58.0126862 24.5,58.13 C22.3146534,58.2573337 20.141911,58.5481469 18,59 C18,59 18.04,58.85 18.13,58.61 C18.8062105,56.4832438 20.7685135,55.0286414 23,55 C27,55 27,51 27,51 L27,43 C27,43 27,39 19,39 L18.17,34.84 L18,34 C19.7490544,34.7973586 21.5998862,35.349243 23.5,35.64 C24.140435,35.723272 24.7887364,35.7266311 25.43,35.65 C26.2157521,35.5749911 26.9270695,35.1533339 27.37,34.5 C27.9329384,33.6061744 27.8562295,32.4515032 27.18,31.64 C26.7506374,31.1357983 26.2403277,30.7065975 25.67,30.37 C22.26,28.18 18.37,26.28 14.18,24.09 L16.08,21.11 L16.71,20.13 C18.28,21.28 22.11,23.97 24.72,24.77 C25.132693,24.9105206 25.5642031,24.9880576 26,25 C28.59,25 27.45,18.27 27.09,16.45 L30.91,16.45 C30.55,18.27 29.41,25 32,25 C32.4357969,24.9880576 32.867307,24.9105206 33.28,24.77 C33.4879127,24.924274 33.7411536,25.0051705 34,25 C35.96,25 40.7,21.93 43,20.34 L44.7813,23.5621 C40.5912,25.7525 35.74,28.18 32.33,30.37 C31.7596723,30.7065975 31.2493626,31.1357983 30.82,31.64 C30.1437705,32.4515032 30.0670616,33.6061744 30.63,34.5 C31.0729305,35.1533339 31.7842479,35.5749911 32.57,35.65 C33.2112636,35.7266311 33.859565,35.723272 34.5,35.64 C34.52,35.64 34.55,35.65 34.57,35.65 C36.28,35.86 39.8525,34.85 41.5625,34.25 L40.725,38.1375 C30.75,38.9063 31,43 31,43 L31,51 C31,51 31,55 35,55 C37.2314865,55.0286414 39.1937895,56.4832438 39.87,58.61 Z" id="Shape" fill="#E8EDFC"/><path d="M26,55 C30,55 30,51 30,51 L30,43 C30,43 30,39 22,39 L21.96,38.7983 C21.9459,38.9407 21.9193,39.0791 21.8978,39.2193 C26.9855,40.0478 27,43 27,43 L27,51 C27,51 27,55 23,55 C20.7685135,55.0286414 18.8062105,56.4832438 18.13,58.61 C18.04,58.85 18,59 18,59 C18,59 19.3583,58.7 21.1937,58.447 C21.9048279,56.3966008 23.8298425,55.0160117 26,55 Z" id="Shape" fill="#FFFFFF"/><path d="M24.19,14.5 L24.2021,14.5064 C25.0102954,15.359351 25.9964628,16.0237951 27.0905,16.4525 C27.392,17.977 28.2288,22.9156 26.9835,24.4966 C27.234,24.596 27.4865,24.6984 27.72,24.77 C28.132693,24.9105206 28.5642031,24.9880576 29,25 C31.5891,25 30.451,18.2755 30.09,16.4525 C28.9959628,16.0237951 28.0097954,15.359351 27.2016,14.5064 L27.19,14.5 L27.1918,14.4949 C25.1827152,12.3746218 24.4896856,9.32752273 25.3841077,6.5468734 C26.2785297,3.76622407 28.6180531,1.69457424 31.4865,1.1432 C30.9965192,1.04942821 30.4988708,1.00148791 30,1 C29.4967644,1.00056323 28.994648,1.04742743 28.5,1.14 C25.628145,1.68706462 23.2837558,3.75777212 22.3862026,6.54007854 C21.4886495,9.32238496 22.1810216,12.372731 24.1918,14.4949 L24.19,14.5 Z" id="Shape" fill="#FFFFFF"/><path d="M10.94,46.55 L11,46.58 L12.3148,45.883 C12.3718,45.873 12.4298,45.8675 12.4865,45.8568 C10.8476861,45.5411352 9.34923389,44.7191934 8.2023,43.5068 L8.19,43.5 L8.1918,43.4949 C6.18271522,41.3746218 5.48968564,38.3275227 6.38410767,35.5468734 C7.2785297,32.7662241 9.61805305,30.6945742 12.4865,30.1432 C11.9965192,30.0494282 11.4988708,30.0014879 11,30 C10.4967644,30.0005632 9.99464802,30.0474274 9.5,30.14 C6.62814503,30.6870646 4.28375579,32.7577721 3.38620264,35.5400785 C2.4886495,38.322385 3.18102165,41.372731 5.1918,43.4949 L5.19,43.5 L5.2023,43.5065 C6.35233499,44.7226393 7.85592018,45.5460304 9.5,45.86 C9.5615,45.8715 9.6268,45.8764 9.6893,45.8866 L10.94,46.55 Z" id="Shape" fill="#FFFFFF"/><path d="M3.19,23.5 L3.2026,23.5068 C4.3526093,24.722758 5.85607152,25.5460343 7.5,25.86 L7.5326,25.8646 L8.92,26.62 L9,26.67 L10.4892,25.8574 C8.84945967,25.5420227 7.3501011,24.7198344 6.2026,23.5068 L6.19,23.5 L6.1918,23.4949 C4.18271522,21.3746218 3.48968564,18.3275227 4.38410767,15.5468734 C5.2785297,12.7662241 7.61805305,10.6945742 10.4865,10.1432 C9.99651923,10.0494282 9.49887082,10.0014879 9,10 C8.49676445,10.0005632 7.99464802,10.0474274 7.5,10.14 C4.62814503,10.6870646 2.28375579,12.7577721 1.38620264,15.5400785 C0.488649496,18.322385 1.18102165,21.372731 3.1918,23.4949 L3.19,23.5 Z" id="Shape" fill="#FFFFFF"/><path d="M11,47 C6.02943725,47 2,42.9705627 2,38 C2,33.0294373 6.02943725,29 11,29 C15.9705627,29 20,33.0294373 20,38 C19.9944889,42.9682782 15.9682782,46.9944889 11,47 Z M11,31 C7.13400675,31 4,34.1340068 4,38 C4,41.8659932 7.13400675,45 11,45 C14.8659932,45 18,41.8659932 18,38 C17.9955364,34.1358572 14.8641428,31.0044636 11,31 Z" id="Shape" fill="#428DFF"/><path d="M5.1914,44.5005 C5.10671802,44.5002741 5.02239683,44.4894568 4.9404,44.4683 C4.40584697,44.3299853 4.08455957,43.7845981 4.2227,43.25 C4.8104068,40.9535192 6.52409717,39.1126391 8.7727,38.3623 C9.11265433,38.2445322 9.48966727,38.3184576 9.75997398,38.5558865 C10.0302807,38.7933154 10.1522109,39.157646 10.0792694,39.5099494 C10.0063279,39.8622529 9.74975935,40.1482185 9.4074,40.2588 C7.80171698,40.795727 6.57822643,42.1108005 6.1584,43.751 C6.04432495,44.1918712 5.64679025,44.4999914 5.1914,44.5005 Z" id="Shape" fill="#428DFF"/><path d="M16.8086,44.5005 C16.3531401,44.4998414 15.9556646,44.1914977 15.8418,43.7505 C15.4219736,42.1103005 14.198483,40.795227 12.5928,40.2583 C12.2504406,40.1477185 11.9938721,39.8617529 11.9209306,39.5094494 C11.8479891,39.157146 11.9699193,38.7928154 12.240226,38.5553865 C12.5105327,38.3179576 12.8875457,38.2440322 13.2275,38.3618 C15.4761028,39.1121391 17.1897932,40.9530192 17.7775,43.2495 C17.8547009,43.5491357 17.7890215,43.8676316 17.5995796,44.1122809 C17.4101378,44.3569302 17.1182212,44.5002414 16.8088,44.5005 L16.8086,44.5005 Z" id="Shape" fill="#428DFF"/><path d="M11,41 C8.790861,41 7,39.209139 7,37 C7,34.790861 8.790861,33 11,33 C13.209139,33 15,34.790861 15,37 C14.9976851,39.2081794 13.2081794,40.9976851 11,41 Z M11,35 C9.8954305,35 9,35.8954305 9,37 C9,38.1045695 9.8954305,39 11,39 C12.1045695,39 13,38.1045695 13,37 C12.9987325,35.8959559 12.1040441,35.0012675 11,35 Z" id="Shape" fill="#428DFF"/><path d="M9,11 C5.13400679,11.0000001 2.0000001,14.1340068 2.0000001,18 C2.0000001,21.8659932 5.13400679,24.9999999 9,25 L9,27 C4.02943725,27 -2.79460044e-16,22.9705627 -8.8817842e-16,18 C-1.4968968e-15,13.0294373 4.02943725,9 9,9 L9,11 Z" id="Shape" fill="#FFFFFF"/><path d="M4.3228,11.5191 C4.62199773,11.9386889 5.18019029,12.0813212 5.644,11.8567 C6.67713175,11.3044698 7.82858698,11.0105331 9,11 L9,9 C7.49286006,9.01070122 6.01111089,9.38911949 4.6834,10.1024 C4.43208355,10.2275913 4.2477536,10.4560309 4.17849563,10.7281268 C4.10923767,11.0002226 4.16192015,11.2889903 4.3228,11.5191 Z" id="Shape" fill="#428DFF"/><path d="M9,27 L9,25 C5.28674586,24.9940154 2.22404689,22.0900814 2.0206,18.3824 C1.99894784,18.0909932 2.00075365,17.7983174 2.026,17.5072 C2.03085332,16.9888735 1.66311943,16.5417674 1.1536,16.4465 C0.878694753,16.3984861 0.596516768,16.4727042 0.380808653,16.6497585 C0.165100538,16.8268129 0.0372979474,17.089109 0.0308,17.3681 C-6.33796903e-05,17.7413412 -0.00250374647,18.1163888 0.0235,18.49 C0.284125808,23.2588991 4.22398824,26.9940107 9,27 Z" id="Shape" fill="#428DFF"/><path d="M3.113,14.2233 C3.23431278,14.0172968 3.2804329,13.7755992 3.2435,13.5394 L3.1918,13.3579 C3.16911579,13.2941341 3.13915104,13.2331979 3.1025,13.1763 C3.07550169,13.1190078 3.04103544,13.0655431 3,13.0173 C2.95656019,12.966734 2.90978929,12.9191279 2.86,12.8748 C2.65518561,12.7028317 2.38606386,12.6277314 2.1218,12.6688 C1.83861637,12.729271 1.59115935,12.8999966 1.43409078,13.1432643 C1.27702221,13.386532 1.22326723,13.6823234 1.2847,13.9653 C1.32480477,14.094797 1.39168425,14.2144169 1.481,14.3164 C1.56532972,14.4170038 1.66985361,14.4987695 1.7878,14.5564 C2.02460622,14.6631116 2.29041631,14.6870968 2.5425,14.6245 C2.77452204,14.5632859 2.97692419,14.4209481 3.113,14.2233 Z" id="Shape" fill="#428DFF"/><path d="M9,27 C8.44771525,27 8,26.5522847 8,26 C8,25.4477153 8.44771525,25 9,25 C12.8659932,24.9999999 15.9999999,21.8659932 15.9999999,18 C15.9999999,14.1340068 12.8659932,11.0000001 9,11 C8.44771527,11 8.00000004,10.5522847 8.00000004,10 C8.00000004,9.44771527 8.44771527,9.00000002 9,9 C13.9705627,9 18,13.0294373 18,18 C18,22.9705627 13.9705627,27 9,27 Z" id="Shape" fill="#428DFF"/><path d="M3.1914,24.5005 C3.10671802,24.5002741 3.02239683,24.4894568 2.9404,24.4683 C2.40584697,24.3299853 2.08455957,23.7845981 2.2227,23.25 C2.8104068,20.9535192 4.52409717,19.1126391 6.7727,18.3623 C7.11265433,18.2445322 7.48966727,18.3184576 7.75997398,18.5558865 C8.03028068,18.7933154 8.15221087,19.157646 8.07926939,19.5099494 C8.0063279,19.8622529 7.74975935,20.1482185 7.4074,20.2588 C5.80171698,20.795727 4.57822643,22.1108005 4.1584,23.751 C4.04432495,24.1918712 3.64679025,24.4999914 3.1914,24.5005 Z" id="Shape" fill="#428DFF"/><path d="M14.8086,24.5005 C14.3531401,24.4998414 13.9556646,24.1914977 13.8418,23.7505 C13.4219736,22.1103005 12.198483,20.795227 10.5928,20.2583 C10.2504406,20.1477185 9.9938721,19.8617529 9.92093061,19.5094494 C9.84798913,19.157146 9.96991932,18.7928154 10.240226,18.5553865 C10.5105327,18.3179576 10.8875457,18.2440322 11.2275,18.3618 C13.4761028,19.1121391 15.1897932,20.9530192 15.7775,23.2495 C15.8547009,23.5491357 15.7890215,23.8676316 15.5995796,24.1122809 C15.4101378,24.3569302 15.1182212,24.5002414 14.8088,24.5005 L14.8086,24.5005 Z" id="Shape" fill="#428DFF"/><path d="M9,21 C6.790861,21 5,19.209139 5,17 C5,14.790861 6.790861,13 9,13 C11.209139,13 13,14.790861 13,17 C12.9976851,19.2081794 11.2081794,20.9976851 9,21 Z M9,15 C7.8954305,15 7,15.8954305 7,17 C7,18.1045695 7.8954305,19 9,19 C10.1045695,19 11,18.1045695 11,17 C10.9987325,15.8959559 10.1040441,15.0012675 9,15 Z" id="Shape" fill="#428DFF"/><path d="M49,47 C44.0294373,47 40,42.9705627 40,38 C40,33.0294373 44.0294373,29 49,29 C53.9705627,29 58,33.0294373 58,38 C57.9944889,42.9682782 53.9682782,46.9944889 49,47 Z M49,31 C45.1340068,31 42,34.1340068 42,38 C42,41.8659932 45.1340068,45 49,45 C52.8659932,45 56,41.8659932 56,38 C55.9955364,34.1358572 52.8641428,31.0044636 49,31 Z" id="Shape" fill="#428DFF"/><path d="M54.8086,44.5005 C54.3531401,44.4998414 53.9556646,44.1914977 53.8418,43.7505 C53.4219736,42.1103005 52.198483,40.795227 50.5928,40.2583 C50.2504406,40.1477185 49.9938721,39.8617529 49.9209306,39.5094494 C49.8479891,39.157146 49.9699193,38.7928154 50.240226,38.5553865 C50.5105327,38.3179576 50.8875457,38.2440322 51.2275,38.3618 C53.4761028,39.1121391 55.1897932,40.9530192 55.7775,43.2495 C55.8547009,43.5491357 55.7890215,43.8676316 55.5995796,44.1122809 C55.4101378,44.3569302 55.1182212,44.5002414 54.8088,44.5005 L54.8086,44.5005 Z" id="Shape" fill="#428DFF"/><path d="M43.1914,44.5005 C43.106718,44.5002741 43.0223968,44.4894568 42.9404,44.4683 C42.6835836,44.4018835 42.4636784,44.2361496 42.3290777,44.0075703 C42.194477,43.7789911 42.1562107,43.5062976 42.2227,43.2495 C42.8104068,40.9530192 44.5240972,39.1121391 46.7727,38.3618 C47.1126543,38.2440322 47.4896673,38.3179576 47.759974,38.5553865 C48.0302807,38.7928154 48.1522109,39.157146 48.0792694,39.5094494 C48.0063279,39.8617529 47.7497594,40.1477185 47.4074,40.2583 C45.801717,40.795227 44.5782264,42.1103005 44.1584,43.7505 C44.0445167,44.1915697 43.6469344,44.4999324 43.1914,44.5005 Z" id="Shape" fill="#428DFF"/><path d="M49,41 C46.790861,41 45,39.209139 45,37 C45,34.790861 46.790861,33 49,33 C51.209139,33 53,34.790861 53,37 C52.9976851,39.2081794 51.2081794,40.9976851 49,41 Z M49,35 C47.8954305,35 47,35.8954305 47,37 C47,38.1045695 47.8954305,39 49,39 C50.1045695,39 51,38.1045695 51,37 C50.9987325,35.8959559 50.1040441,35.0012675 49,35 Z" id="Shape" fill="#428DFF"/><path d="M51,27 C46.0294373,27 42,22.9705627 42,18 C42,13.0294373 46.0294373,9 51,9 C55.9705627,9 60,13.0294373 60,18 C59.9944889,22.9682782 55.9682782,26.9944889 51,27 Z M51,11 C48.1687643,11 45.6163103,12.7054952 44.5328433,15.321216 C43.4493763,17.9369367 44.0482666,20.9477615 46.0502525,22.9497475 C48.0522385,24.9517334 51.0630633,25.5506237 53.678784,24.4671567 C56.2945048,23.3836897 58,20.8312357 58,18 C57.9955364,14.1358572 54.8641428,11.0044636 51,11 Z" id="Shape" fill="#428DFF"/><path d="M56.8086,24.5005 C56.3531401,24.4998414 55.9556646,24.1914977 55.8418,23.7505 C55.4219736,22.1103005 54.198483,20.795227 52.5928,20.2583 C52.2504406,20.1477185 51.9938721,19.8617529 51.9209306,19.5094494 C51.8479891,19.157146 51.9699193,18.7928154 52.240226,18.5553865 C52.5105327,18.3179576 52.8875457,18.2440322 53.2275,18.3618 C55.4761028,19.1121391 57.1897932,20.9530192 57.7775,23.2495 C57.8547009,23.5491357 57.7890215,23.8676316 57.5995796,24.1122809 C57.4101378,24.3569302 57.1182212,24.5002414 56.8088,24.5005 L56.8086,24.5005 Z" id="Shape" fill="#428DFF"/><path d="M45.1914,24.5005 C45.106718,24.5002741 45.0223968,24.4894568 44.9404,24.4683 C44.6835836,24.4018835 44.4636784,24.2361496 44.3290777,24.0075703 C44.194477,23.7789911 44.1562107,23.5062976 44.2227,23.2495 C44.8104068,20.9530192 46.5240972,19.1121391 48.7727,18.3618 C49.1126543,18.2440322 49.4896673,18.3179576 49.759974,18.5553865 C50.0302807,18.7928154 50.1522109,19.157146 50.0792694,19.5094494 C50.0063279,19.8617529 49.7497594,20.1477185 49.4074,20.2583 C47.801717,20.795227 46.5782264,22.1103005 46.1584,23.7505 C46.0445167,24.1915697 45.6469344,24.4999324 45.1914,24.5005 Z" id="Shape" fill="#428DFF"/><path d="M51,21 C48.790861,21 47,19.209139 47,17 C47,14.790861 48.790861,13 51,13 C53.209139,13 55,14.790861 55,17 C54.9976851,19.2081794 53.2081794,20.9976851 51,21 Z M51,15 C49.8954305,15 49,15.8954305 49,17 C49,18.1045695 49.8954305,19 51,19 C52.1045695,19 53,18.1045695 53,17 C52.9987325,15.8959559 52.1040441,15.0012675 51,15 Z" id="Shape" fill="#428DFF"/><path d="M30,18 C25.0294373,18 21,13.9705627 21,9 C21,4.02943725 25.0294373,9.13077564e-16 30,0 C34.9705627,-9.13077564e-16 39,4.02943725 39,9 C38.9944889,13.9682782 34.9682782,17.9944889 30,18 Z M30,2 C26.1340068,2 23,5.13400675 23,9 C23,12.8659932 26.1340068,16 30,16 C33.8659932,16 37,12.8659932 37,9 C36.9955364,5.13585715 33.8641428,2.00446362 30,2 Z" id="Shape" fill="#428DFF"/><path d="M24.1914,15.5005 C24.106718,15.5002741 24.0223968,15.4894568 23.9404,15.4683 C23.6835836,15.4018835 23.4636784,15.2361496 23.3290777,15.0075703 C23.194477,14.7789911 23.1562107,14.5062976 23.2227,14.2495 C23.8104068,11.9530192 25.5240972,10.1121391 27.7727,9.3618 C28.1126543,9.2440322 28.4896673,9.3179576 28.759974,9.5553865 C29.0302807,9.79281541 29.1522109,10.157146 29.0792694,10.5094494 C29.0063279,10.8617529 28.7497594,11.1477185 28.4074,11.2583 C26.801717,11.795227 25.5782264,13.1103005 25.1584,14.7505 C25.0445167,15.1915697 24.6469344,15.4999324 24.1914,15.5005 Z" id="Shape" fill="#428DFF"/><path d="M35.8086,15.5005 C35.3531401,15.4998414 34.9556646,15.1914977 34.8418,14.7505 C34.4219736,13.1103005 33.198483,11.795227 31.5928,11.2583 C31.2504406,11.1477185 30.9938721,10.8617529 30.9209306,10.5094494 C30.8479891,10.157146 30.9699193,9.79281541 31.240226,9.5553865 C31.5105327,9.3179576 31.8875457,9.2440322 32.2275,9.3618 C34.4761028,10.1121391 36.1897932,11.9530192 36.7775,14.2495 C36.8547009,14.5491357 36.7890215,14.8676316 36.5995796,15.1122809 C36.4101378,15.3569302 36.1182212,15.5002414 35.8088,15.5005 L35.8086,15.5005 Z" id="Shape" fill="#428DFF"/><path d="M30,12 C27.790861,12 26,10.209139 26,8 C26,5.790861 27.790861,4 30,4 C32.209139,4 34,5.790861 34,8 C33.9976851,10.2081794 32.2081794,11.9976851 30,12 Z M30,6 C28.8954305,6 28,6.8954305 28,8 C28,9.1045695 28.8954305,10 30,10 C31.1045695,10 32,9.1045695 32,8 C31.9987325,6.89595593 31.1040441,6.00126747 30,6 Z" id="Shape" fill="#428DFF"/><path d="M29.999,60 C29.8018688,60.0000692 29.6091568,59.9415978 29.4453,59.832 C27.5176,58.5479 21.5353,59.2393 18.2168,59.9761 C17.8784074,60.0517188 17.5250041,59.9464806 17.2831057,59.6980598 C17.0412072,59.449639 16.9454067,59.0935614 17.03,58.7573 C17.7095396,56.000305 20.1608813,54.0469101 23,54 C23.8090174,54.0429933 24.5981613,53.739994 25.1705149,53.1666102 C25.7428685,52.5932263 26.0444481,51.8035388 26,50.9946 L26,43 C25.9941,42.9 25.77,40 19,40 C18.4477153,40 18,39.5522847 18,39 C18,38.4477153 18.4477153,38 19,38 C27.8975,38 28,42.7959 28,43 L28,51 C28.0508788,52.3410335 27.5404516,53.6425794 26.5915155,54.5915155 C25.6425794,55.5404516 24.3410335,56.0508788 23,56 C21.7152478,55.9769448 20.5027769,56.5928649 19.7637,57.644 C22.7324,57.1465 28.1191,56.544 30.5547,58.168 C30.9214638,58.4125568 31.0848271,58.8684283 30.9568699,59.2902702 C30.8289127,59.7121122 30.4398214,60.0004078 29.999,60 Z" id="Shape" fill="#428DFF"/><path d="M42.001,60 C41.9277477,59.999963 41.8547172,59.9919491 41.7832,59.9761 C38.4648,59.2402 32.4805,58.5483 30.5547,59.832 C30.2574655,60.0341255 29.8746181,60.0611759 29.5519159,59.9028524 C29.2292136,59.7445289 29.0163098,59.4251924 28.9942614,59.066421 C28.972213,58.7076496 29.1444125,58.3646464 29.4453,58.168 C32.7061,55.9937 41.2529,57.8091 42.2168,58.0239 C42.7143083,58.134664 43.0489049,58.6018838 42.9935733,59.1085607 C42.9382416,59.6152377 42.5106887,59.999227 42.001,60 Z" id="Shape" fill="#428DFF"/><path d="M24.5215,36.7036 C22.1247898,36.560697 19.7783528,35.9555132 17.6115,34.9214 C17.1026248,34.7067269 16.8641269,34.1201752 17.0788,33.6113 C17.2934731,33.1024248 17.8800248,32.8639269 18.3889,33.0786 C20.593,34.0073 23.1379,34.9204 25.3089,34.6572 C25.7985042,34.6161505 26.2449943,34.3609924 26.5289,33.96 C26.8594987,33.4261001 26.8065978,32.7396424 26.3981,32.2627 C26.0351447,31.8458823 25.6068621,31.4908209 25.13,31.2114 C22.4415,29.4854 19.4093,27.9199 16.1983,26.2627 C15.3839,25.8423 14.5567667,25.4134333 13.7169,24.9761 C13.3938886,24.8142623 13.1832878,24.490778 13.1659948,24.1299058 C13.1487019,23.7690335 13.3274059,23.4268938 13.6334623,23.2349111 C13.9395187,23.0429285 14.3253313,23.0309588 14.6427,23.2036 C15.4796333,23.6406 16.3038333,24.0678667 17.1153,24.4854 C20.3692,26.1654 23.4425,27.7515 26.2101,29.5288 C26.8741414,29.9248797 27.4672576,30.429238 27.9649,31.021 C28.9135369,32.1648391 29.0130647,33.7910115 28.211,35.042 C27.6083078,35.9489593 26.6297558,36.5368616 25.546,36.6431 C25.2060471,36.6840712 24.8639123,36.7042754 24.5215,36.7036 Z" id="Shape" fill="#428DFF"/><path d="M26,26 C23.3926,26 18.6895,22.8271 16.1172,20.9355 C15.6722518,20.6081332 15.5769332,19.9820482 15.9043,19.5371 C16.2316668,19.0921518 16.8577518,18.9968332 17.3027,19.3242 C21.1641,22.1646 24.5781,24 26,24 C26.0794154,24.006708 26.1559172,23.9684571 26.1982,23.9009 C26.8382,23.1226 26.8008,20.1387 26.1094,16.6445 C26.0274291,16.2891548 26.1453953,15.9173622 26.4172415,15.6742798 C26.6890877,15.4311974 27.0717055,15.3553724 27.4157107,15.4764089 C27.7597159,15.5974453 28.0105574,15.8961497 28.0703,16.2559 C28.5781,18.8188 29.2109,23.3848 27.7441,25.1704 C27.3223088,25.7017688 26.6783772,26.0080619 26,26 Z" id="Shape" fill="#428DFF"/><path d="M41.999,60 C41.542125,59.9996364 41.1436897,59.6894357 41.0313,59.2466 C40.9941,59.1069 40.1455,56 37,56 C35.6589665,56.0508788 34.3574206,55.5404516 33.4084845,54.5915155 C32.4595484,53.6425794 31.9491212,52.3410335 32,51 L32,43 C32,42.7959 32.1025,38 41,38 C41.5522847,38 42,38.4477153 42,39 C42,39.5522847 41.5522847,40 41,40 C34.23,40 34.0059,42.9 34,43.0234 L34,51 C33.9567255,51.8081405 34.2588744,52.596605 34.8311347,53.1688653 C35.403395,53.7411256 36.1918595,54.0432745 37,54 C39.8391311,54.0468753 42.2904915,56.0002851 42.97,58.7573 C43.0447816,59.0562104 42.9775909,59.3729048 42.7878798,59.6156998 C42.5981687,59.8584948 42.3071228,60.0002769 41.999,60 Z" id="Shape" fill="#428DFF"/><path d="M35.4766,36.7031 C35.1332331,36.7039682 34.7901317,36.6839311 34.4492,36.6431 C33.3663821,36.5356299 32.3892673,35.9469963 31.7881,35.04 C30.9864745,33.7878538 31.0875961,32.160848 32.0381,31.0176 C32.5350478,30.4272006 33.1271703,29.924003 33.79,29.5288 C36.5576,27.7515 39.6309,26.165 42.8848,24.4854 C43.6953333,24.0664 44.5195333,23.6391333 45.3574,23.2036 C45.6747687,23.0309588 46.0605813,23.0429285 46.3666377,23.2349111 C46.6726941,23.4268938 46.8513981,23.7690335 46.8341052,24.1299058 C46.8168122,24.490778 46.6062114,24.8142623 46.2832,24.9761 C45.4432,25.4150333 44.6160667,25.8439 43.8018,26.2627 C40.5908,27.9199 37.5586,29.4854 34.8701,31.2114 C34.394656,31.4899918 33.9675719,31.8438914 33.6055,32.2593 C33.1951204,32.7356275 33.1405812,33.4229103 33.4707,33.958 C33.7530563,34.3588447 34.1980074,34.6145507 34.6865,34.6567 C36.8584,34.9199 39.4065,34.0073 41.6113,33.0786 C42.1201752,32.8639269 42.7067269,33.1024248 42.9214,33.6113 C43.1360731,34.1201752 42.8975752,34.7067269 42.3887,34.9214 C40.2212156,35.9557424 37.8740142,36.5607696 35.4766,36.7031 Z" id="Shape" fill="#428DFF"/><path d="M34,26 C33.3215544,26.0079654 32.6776104,25.7015188 32.2559,25.17 C30.7891,23.3844 31.4219,18.8184 31.9297,16.2555 C31.9894426,15.8957497 32.2402841,15.5970453 32.5842893,15.4760089 C32.9282945,15.3549724 33.3109123,15.4307974 33.5827585,15.6738798 C33.8546047,15.9169622 33.9725709,16.2887548 33.8906,16.6441 C33.1992,20.1383 33.1621,23.1222 33.8018,23.9005 C33.8439804,23.9682101 33.9205019,24.0066253 34,24 C35.4219,24 38.8359,22.1646 42.6973,19.3242 C43.1422482,18.9968332 43.7683332,19.0921518 44.0957,19.5371 C44.4230667,19.9820482 44.3277482,20.6081332 43.8828,20.9355 C41.3105,22.8271 36.6074,26 34,26 Z" id="Shape" fill="#428DFF"/></g></g></svg>
