<?xml version="1.0" encoding="UTF-8"?>
<svg xmlns="http://www.w3.org/2000/svg" xmlns:xlink="http://www.w3.org/1999/xlink" width="512" height="512" viewBox="0 0 56 60" version="1.1"><!-- Generator: Sketch 51.3 (57544) - http://www.bohemiancoding.com/sketch --><title>003 - DNA Family Tree</title><desc>Created with Sketch.</desc><defs/><g id="Page-1" stroke="none" stroke-width="1" fill="none" fill-rule="evenodd"><g id="003---DNA-Family-Tree"><path d="M39.95,48.1 C39.3795651,54.2738232 34.2001201,58.996771 28,58.996771 C21.7998799,58.996771 16.6204349,54.2738232 16.05,48.1 C16.0248235,47.8186436 16.1186241,47.5396014 16.308641,47.3305828 C16.498658,47.1215641 16.7675244,47.0016727 17.05,47 L38.95,47 C39.2324756,47.0016727 39.501342,47.1215641 39.691359,47.3305828 C39.8813759,47.5396014 39.9751765,47.8186436 39.95,48.1 Z" id="Shape" fill="#CAD9FC"/><path d="M37.95,47 L37.95,47.1 C37.6008901,50.8402567 35.5227921,54.2020645 32.3332012,56.1864807 C29.1436104,58.1708969 25.2095483,58.5495776 21.7,57.21 C18.4876247,55.2320283 16.3942872,51.8567531 16.05,48.1 C16.0248235,47.8186436 16.1186241,47.5396014 16.308641,47.3305828 C16.498658,47.1215641 16.7675244,47.0016727 17.05,47 L37.95,47 Z" id="Shape" fill="#E8EDFC"/><path d="M9,23.84 C8.99207892,24.0002754 8.99877324,24.1609391 9.02,24.32 C8.87300127,24.4766642 8.71600572,24.6236387 8.55,24.76 C6.83,26.15 2,26.22 2,26.22 C2,26.22 2.2,25.33 2.56,24.2 C3.04,22.74 3.79,20.89 4.76,20.1 C6.4,18.78 8.5,18.63 9.59,19.73 C9.65185097,19.7848827 9.70873826,19.8451163 9.76,19.91 C9.98675079,20.1880701 10.1413263,20.5178312 10.21,20.87 C9.46762235,21.6854351 9.03882689,22.7379331 9,23.84 Z" id="Shape" fill="#7FACFA"/><path d="M9,21.84 C8.99207892,22.0002754 8.99877324,22.1609391 9.02,22.32 C8.87300127,22.4766642 8.71600572,22.6236387 8.55,22.76 C7.19,23.86 3.87,24.13 2.56,24.2 C3.04,22.74 3.79,20.89 4.76,20.1 C6.4,18.78 8.5,18.63 9.59,19.73 C9.2410208,20.3815729 9.03959741,21.1019175 9,21.84 Z" id="Shape" fill="#A4C2F7"/><path d="M9.41,12.84 C8.92541871,13.5310552 8.14360636,13.9534562 7.3,13.98 C6.28065526,14.0407508 5.26936679,13.7668601 4.42,13.2 C3.08,12.34 1.9,9.73 1.34,8.34 C1.12,7.79 1,7.43 1,7.43 C1,7.43 5.81,6.96 7.67,8.15 C9.53,9.35 10.31,11.45 9.41,12.84 Z" id="Shape" fill="#7FACFA"/><path d="M7.41,13.84 C7.37898265,13.8908413 7.34205938,13.9378346 7.3,13.98 C6.28065526,14.0407508 5.26936679,13.7668601 4.42,13.2 C3.08,12.34 1.9,9.73 1.34,8.34 C2.82726402,8.26100839 4.31186159,8.53872757 5.67,9.15 C7.53,10.35 8.31,12.45 7.41,13.84 Z" id="Shape" fill="#A4C2F7"/><path d="M18.28,9.25 C18.1534935,9.46585374 17.9911765,9.65860519 17.8,9.82 C17.74,9.87 17.67,9.92 17.6,9.97 C17.4844531,10.0501619 17.3603587,10.1172399 17.23,10.17 C15.86,10.76 14,10 12.88,8.32 C12.2338958,6.98148479 11.9249215,5.50527438 11.98,4.02 C11.94,2.72 12.02,1.67 12.02,1.67 C12.02,1.67 16.5,3.11 17.8,4.9 C17.82,4.93 17.84,4.95 17.86,4.98 C17.95,5.12 18.03,5.25 18.11,5.39 L18.28,9.25 Z" id="Shape" fill="#7FACFA"/><path d="M17.23,10.17 C15.86,10.76 14,10 12.88,8.32 C12.2338958,6.98148479 11.9249215,5.50527438 11.98,4.02 C13.37,4.54 15.88,5.63 16.8,6.9 C16.82,6.93 16.84,6.95 16.86,6.98 C16.95,7.12 17.03,7.25 17.11,7.39 L17.23,10.17 Z" id="Shape" fill="#A4C2F7"/><path d="M23.63,7.71 C22.71,9.7 20.76,10.76 19.26,10.08 C19.25,10.08 19.24,10.07 19.23,10.07 C17.72,9.37 17.26,7.18 18.19,5.18 C18.72,4.04 20.35,2.84 21.65,2.02 C22.64,1.4 23.44,1 23.44,1 C23.44,1 24.56,5.7 23.63,7.71 Z" id="Shape" fill="#7FACFA"/><path d="M21.63,7.71 C21.1668159,8.77038423 20.3203842,9.61681588 19.26,10.08 C19.25,10.08 19.24,10.07 19.23,10.07 C17.72,9.37 17.26,7.18 18.19,5.18 C18.72,4.04 20.35,2.84 21.65,2.02 C21.92,3.51 22.29,6.29 21.63,7.71 Z" id="Shape" fill="#A4C2F7"/><path d="M15,24.15 C14.88,26.36 11.69,29.99 11.69,29.99 C11.69,29.99 11.29,29.43 10.8,28.6 C9.9375366,27.3007632 9.33321047,25.8476644 9.02,24.32 C8.99877324,24.1609391 8.99207892,24.0002754 9,23.84 C9.03882689,22.7379331 9.46762235,21.6854351 10.21,20.87 C10.4565575,20.5988185 10.7560448,20.3810096 11.09,20.23 C11.437748,20.0594783 11.8231936,19.9803243 12.21,20 C13.86,20.09 15.11,21.95 15,24.15 Z" id="Shape" fill="#7FACFA"/><path d="M13,24.15 C12.93,25.49 11.73,27.35 10.8,28.6 C9.9375366,27.3007632 9.33321047,25.8476644 9.02,24.32 C8.99877324,24.1609391 8.99207892,24.0002754 9,23.84 C9.03882689,22.7379331 9.46762235,21.6854351 10.21,20.87 C10.4565575,20.5988185 10.7560448,20.3810096 11.09,20.23 C12.4357972,21.0531492 13.1811402,22.5828584 13,24.15 Z" id="Shape" fill="#A4C2F7"/><path d="M54,26.22 C54,26.22 53.12,26.21 51.97,26.08 C50.44,25.92 48.43,25.56 47.45,24.76 C47.2839943,24.6236387 47.1269987,24.4766642 46.98,24.32 C47.0012268,24.1609391 47.0079211,24.0002754 47,23.84 C46.9611731,22.7379331 46.5323777,21.6854351 45.79,20.87 C45.8586737,20.5178312 46.0132492,20.1880701 46.24,19.91 C46.5372124,19.5457086 46.9383528,19.2806071 47.39,19.15 C48.7514719,18.8142345 50.1909975,19.1694422 51.24,20.1 C52.95,21.5 54,26.22 54,26.22 Z" id="Shape" fill="#7FACFA"/><path d="M55,7.43 C55,7.43 53.44,12 51.58,13.2 C50.5481996,13.9057014 49.2686165,14.1485685 48.05,13.87 C47.4544947,13.7151551 46.9355972,13.3490836 46.59,12.84 C45.69,11.45 46.47,9.35 48.33,8.15 C49.4392765,7.61395545 50.6581049,7.34348511 51.89,7.36 L51.96,7.36 C52.9738008,7.31982532 53.9891228,7.34320445 55,7.43 Z" id="Shape" fill="#7FACFA"/><path d="M51.97,26.08 C50.44,25.92 48.43,25.56 47.45,24.76 C47.2839943,24.6236387 47.1269987,24.4766642 46.98,24.32 C47.0012268,24.1609391 47.0079211,24.0002754 47,23.84 C46.9611731,22.7379331 46.5323777,21.6854351 45.79,20.87 C45.8586737,20.5178312 46.0132492,20.1880701 46.24,19.91 C46.5372124,19.5457086 46.9383528,19.2806071 47.39,19.15 C48.067783,19.3300094 48.698787,19.6540385 49.24,20.1 C50.78,21.36 51.78,25.3 51.97,26.08 Z" id="Shape" fill="#A4C2F7"/><path d="M53,7.43 C53,7.43 51.44,12 49.58,13.2 C49.1090104,13.5035283 48.5924783,13.729722 48.05,13.87 C47.4544947,13.7151551 46.9355972,13.3490836 46.59,12.84 C45.69,11.45 46.47,9.35 48.33,8.15 C49.4392765,7.61395545 50.6581049,7.34348511 51.89,7.36 L51.96,7.36 C52.59,7.39 53,7.43 53,7.43 Z" id="Shape" fill="#A4C2F7"/><path d="M43.12,8.32 C42,9.99 40.15,10.76 38.79,10.18 C38.6538505,10.1220761 38.5233032,10.0517814 38.4,9.97 C38.33,9.92 38.26,9.87 38.2,9.82 C38.0088235,9.65860519 37.8465065,9.46585374 37.72,9.25 L37.89,5.39 C37.97,5.25 38.05,5.12 38.14,4.98 C38.16,4.95 38.18,4.93 38.2,4.9 C39.2620704,3.79095815 40.5659629,2.94223021 42.01,2.42 C43.1,1.95 43.98,1.67 43.98,1.67 C43.98,1.67 44.36,6.49 43.12,8.32 Z" id="Shape" fill="#7FACFA"/><path d="M41.12,8.32 C40.5704912,9.18069305 39.7510498,9.83483941 38.79,10.18 C38.6538505,10.1220761 38.5233032,10.0517814 38.4,9.97 C38.33,9.92 38.26,9.87 38.2,9.82 C38.0088235,9.65860519 37.8465065,9.46585374 37.72,9.25 L37.89,5.39 C37.97,5.25 38.05,5.12 38.14,4.98 C38.16,4.95 38.18,4.93 38.2,4.9 C39.2620704,3.79095815 40.5659629,2.94223021 42.01,2.42 C42.07,3.84 42.06,6.94 41.12,8.32 Z" id="Shape" fill="#A4C2F7"/><path d="M36.77,10.07 C36.4357165,10.2268178 36.0690369,10.3022099 35.7,10.29 C34.2015658,10.1040289 32.9243617,9.11448338 32.37,7.71 C31.83,6.54 31.98,4.47 32.21,2.93 C32.36,1.83 32.56,1 32.56,1 C32.56,1 36.88,3.17 37.81,5.18 C38.74,7.18 38.28,9.37 36.77,10.07 Z" id="Shape" fill="#7FACFA"/><path d="M35.7,10.29 C34.2015658,10.1040289 32.9243617,9.11448338 32.37,7.71 C31.83,6.54 31.98,4.47 32.21,2.93 C33.54,3.75 35.26,5 35.81,6.18 C36.4968433,7.47444213 36.4550993,9.03415 35.7,10.29 Z" id="Shape" fill="#A4C2F7"/><path d="M47,23.84 C47.0079211,24.0002754 47.0012268,24.1609391 46.98,24.32 C46.74,26.57 44.31,29.99 44.31,29.99 C44.31,29.99 43.81,29.42 43.2,28.6 C42.27,27.35 41.07,25.49 41,24.15 C40.8188598,22.5828584 41.5642028,21.0531492 42.91,20.23 C43.1863247,20.0988547 43.4848436,20.0208327 43.79,20 C44.5528647,19.9781897 45.2858593,20.2970424 45.79,20.87 C46.5323777,21.6854351 46.9611731,22.7379331 47,23.84 Z" id="Shape" fill="#7FACFA"/><path d="M45,23.84 C45.0079211,24.0002754 45.0012268,24.1609391 44.98,24.32 C44.6667895,25.8476644 44.0624634,27.3007632 43.2,28.6 C42.27,27.35 41.07,25.49 41,24.15 C40.8188598,22.5828584 41.5642028,21.0531492 42.91,20.23 C43.2439552,20.3810096 43.5434425,20.5988185 43.79,20.87 C44.5323777,21.6854351 44.9611731,22.7379331 45,23.84 Z" id="Shape" fill="#A4C2F7"/><path d="M21.7,57.21 C24.0181925,58.6601436 26.7692229,59.2572375 29.48,58.8986 C23.902287,58.1881418 19.5663925,53.6990152 19.05,48.1 C19.0248235,47.8186436 19.1186241,47.5396014 19.308641,47.3305828 C19.498658,47.1215641 19.7675244,47.0016727 20.05,47 L17.05,47 C16.7675244,47.0016727 16.498658,47.1215641 16.308641,47.3305828 C16.1186241,47.5396014 16.0248235,47.8186436 16.05,48.1 C16.3942872,51.8567531 18.4876247,55.2320283 21.7,57.21 Z" id="Shape" fill="#FFFFFF" fill-rule="nonzero"/><path d="M12.88,8.32 C14,10 15.86,10.76 17.23,10.17 C17.3603587,10.1172399 17.4844531,10.0501619 17.6,9.97 C17.6168,9.958 17.6313,9.946 17.6479,9.9341 C16.9333752,9.55169135 16.3256836,8.99686641 15.88,8.32 C15.2338958,6.98148479 14.9249215,5.50527438 14.98,4.02 C14.9671,3.6016 14.9673,3.2149 14.9727,2.875 C14.0153733,2.41032293 13.0290963,2.00782221 12.02,1.67 C12.02,1.67 11.94,2.72 11.98,4.02 C11.9249215,5.50527438 12.2338958,6.98148479 12.88,8.32 Z" id="Shape" fill="#FFFFFF" fill-rule="nonzero"/><path d="M4.42,13.2 C5.26936679,13.7668601 6.28065526,14.0407508 7.3,13.98 C7.68738256,13.9538289 8.06610594,13.8533339 8.4155,13.684 C8.06750302,13.558281 7.73380681,13.396042 7.42,13.2 C6.08,12.34 4.9,9.73 4.34,8.34 C4.12,7.79 4,7.43 4,7.43 C4,7.43 4.2182,7.4094 4.5673,7.3878 C3.37876603,7.31469122 2.1864719,7.32879568 1,7.43 C1,7.43 1.12,7.79 1.34,8.34 C1.9,9.73 3.08,12.34 4.42,13.2 Z" id="Shape" fill="#FFFFFF" fill-rule="nonzero"/><path d="M5.56,24.2 C6.04,22.74 6.79,20.89 7.76,20.1 C8.14960353,19.7848916 8.58233041,19.5272086 9.045,19.3348 C7.5896703,18.7323325 5.91685533,19.0310578 4.76,20.1 C3.79,20.89 3.04,22.74 2.56,24.2 C2.2,25.33 2,26.22 2,26.22 C3.02653261,26.1923391 4.05036305,26.1010641 5.0656,25.9467 C5.1509,25.601 5.3184,24.9583 5.56,24.2 Z" id="Shape" fill="#FFFFFF" fill-rule="nonzero"/><path d="M28,27.5518 C27.7810411,27.5518258 27.568133,27.4799429 27.394,27.3472 C26.8418,26.9263 22,23.126 22,19.2759 C21.9999571,18.9071916 22.2028074,18.5683729 22.5278258,18.3942783 C22.8528442,18.2201837 23.2472932,18.2390618 23.5542,18.4434 C24.3208,18.9534 26.6133,20.2759 28,20.2759 C28.5522847,20.2759 29,20.7236153 29,21.2759 C29,21.8281847 28.5522847,22.2759 28,22.2759 C26.8201536,22.1971777 25.6694557,21.8746186 24.6206,21.3286 C25.5216698,22.8175988 26.6636576,24.1466963 28,25.2617 C29.5,23.9717 32,21.3823 32,19.2759 C32,18.7236153 32.4477153,18.2759 33,18.2759 C33.5522847,18.2759 34,18.7236153 34,19.2759 C34,23.1259 29.1582,26.9259 28.606,27.3472 C28.431867,27.4799429 28.2189589,27.5518258 28,27.5518 Z" id="Shape" fill="#428DFF" fill-rule="nonzero"/><path d="M28,41 C27.8182574,41.0000223 27.6399658,40.9503662 27.4844,40.8564 C27.26,40.7217 22,37.5059 22,33.2759 C22,29.0459 27.26,25.8301 27.4844,25.6948 C27.8017654,25.5043947 28.1982346,25.5043947 28.5156,25.6948 C28.74,25.83 34,29.0454 34,33.2759 C34,37.5064 28.74,40.7217 28.5156,40.8564 C28.3600342,40.9503662 28.1817426,41.0000223 28,41 Z M28.001,27.7456 C26.541,28.7627 24,31.0056 24,33.2756 C24,35.5549 26.5391,37.7922 27.999,38.8056 C29.459,37.788 32,35.5456 32,33.2756 C32,30.9961 29.4609,28.7593 28.001,27.7456 Z" id="Shape" fill="#428DFF" fill-rule="nonzero"/><path d="M33,48 C32.4477153,48 32,47.5522847 32,47 C32,44.8916 29.4883,42.4434 28.001,41.2539 C26.5132,42.4458 24,44.8979 24,47 C24,47.5522847 23.5522847,48 23,48 C22.4477153,48 22,47.5522847 22,47 C22,43.1284 26.8677,39.5757 27.4229,39.1836 C27.7685985,38.9385042 28.2314015,38.9385042 28.5771,39.1836 C29.1323,39.5757 34,43.1284 34,47 C34,47.5522847 33.5522847,48 33,48 Z" id="Shape" fill="#428DFF" fill-rule="nonzero"/><path d="M17,47 C17.0152973,51.0691799 19.2629912,54.8015616 22.8525,56.7183 C24.4430385,57.5460448 26.2070256,57.9852681 28,58 L28,60 C25.8800799,59.9851489 23.7941613,59.4657602 21.9148,58.4848 C17.6715651,56.2211937 15.0151999,51.8092333 15,47 L17,47 Z" id="Shape" fill="#FFFFFF" fill-rule="nonzero"/><path d="M17.0319,51.8554 C17.5133659,51.6405376 17.7622356,51.1031704 17.6147,50.597 C17.2205673,49.4381283 17.0130804,48.2239906 17,47 L15,47 C15.0131158,48.4467289 15.2577789,49.8820274 15.7247,51.2514 C15.8041857,51.5149123 15.9926713,51.7317945 16.2425283,51.8472424 C16.4923852,51.9626904 16.7797106,51.9656597 17.0319,51.8554 Z" id="Shape" fill="#428DFF" fill-rule="nonzero"/><path d="M28,60 L28,58 C26.2070256,57.9852681 24.4430385,57.5460448 22.8525,56.7183 C22.5816,56.5783 22.3284,56.4047 22.0645,56.251 C21.6107555,55.9829737 21.0282849,56.09635 20.7082,56.515 C20.5428272,56.7350687 20.4783227,57.0148492 20.5306483,57.2851091 C20.5829739,57.555369 20.7472405,57.7908567 20.9828,57.9333 C21.2935,58.117 21.5947,58.3183 21.9148,58.4848 C23.7941613,59.4657602 25.8800799,59.9851489 28,60 Z" id="Shape" fill="#428DFF" fill-rule="nonzero"/><path d="M19.3634,53.7973 C19.2079711,53.6019993 18.9828497,53.4745978 18.7354,53.4419 L18.5437,53.4359 C18.4766764,53.4386959 18.4101539,53.4487547 18.3453,53.4659 C18.2831723,53.4736472 18.2225226,53.4904943 18.1653,53.5159 C18.1043418,53.5430016 18.0452753,53.5741719 17.9885,53.6092 C17.7656039,53.75653 17.6141149,53.9900136 17.5704,54.2536 C17.5173447,54.8324334 17.9290503,55.3505789 18.5049,55.4297 C18.638205,55.4373066 18.7716473,55.4173583 18.8969,55.3711 C19.020593,55.3286486 19.1342192,55.2611809 19.2307,55.1729 C19.4186685,54.9899295 19.5373177,54.7474002 19.5664,54.4867 C19.5766153,54.2408009 19.5052451,53.9984235 19.3634,53.7973 Z" id="Shape" fill="#428DFF" fill-rule="nonzero"/><path d="M28,60 C27.4477153,60 27,59.5522847 27,59 C27,58.4477153 27.4477153,58 28,58 C33.6851064,57.9931306 38.4310973,53.6609101 38.9551,48 L16,48 C15.4477153,48 15,47.5522847 15,47 C15,46.4477153 15.4477153,46 16,46 L40,46 C40.5522847,46 41,46.4477153 41,47 C40.9920639,54.1764119 35.1764119,59.9920639 28,60 Z" id="Shape" fill="#428DFF" fill-rule="nonzero"/><path d="M29,32.2759 L27,32.2759 C26.4477153,32.2759 26,31.8281847 26,31.2759 C26,30.7236153 26.4477153,30.2759 27,30.2759 L29,30.2759 C29.5522847,30.2759 30,30.7236153 30,31.2759 C30,31.8281847 29.5522847,32.2759 29,32.2759 Z" id="Shape" fill="#428DFF" fill-rule="nonzero"/><path d="M29,36.2759 L27,36.2759 C26.4477153,36.2759 26,35.8281847 26,35.2759 C26,34.7236153 26.4477153,34.2759 27,34.2759 L29,34.2759 C29.5522847,34.2759 30,34.7236153 30,35.2759 C30,35.8281847 29.5522847,36.2759 29,36.2759 Z" id="Shape" fill="#428DFF" fill-rule="nonzero"/><path d="M28,22.2759 C27.4477153,22.2759 27,21.8281847 27,21.2759 C27,20.7236153 27.4477153,20.2759 28,20.2759 C29.3867,20.2759 31.6792,18.9531 32.4458,18.4434 C32.905439,18.1371857 33.5262857,18.261561 33.8325,18.7212 C34.1387142,19.180839 34.014339,19.8016857 33.5547,20.1079 C33.2217,20.33 30.2383,22.2759 28,22.2759 Z" id="Shape" fill="#428DFF" fill-rule="nonzero"/><path d="M23,20.2759 C22.7240665,20.2761033 22.4603577,20.1620768 22.2715,19.9609 C19.5389584,17.4520109 15.7962949,16.3542615 12.1415,16.9897 C11.7840262,17.048551 11.4226791,16.9094563 11.1969311,16.6261035 C10.9711832,16.3427506 10.9163444,15.9594599 11.0535814,15.6241735 C11.1908183,15.2888871 11.4986654,15.0540483 11.8583,15.0103 C16.1582503,14.2806248 20.5518008,15.6064134 23.7304,18.5928 C24.0025503,18.8837649 24.0760224,19.3085175 23.9174205,19.6739923 C23.7588187,20.039467 23.3984048,20.2759299 23,20.2759 Z" id="Shape" fill="#428DFF" fill-rule="nonzero"/><path d="M18.9707,17.76 C18.569237,17.7601363 18.2066114,17.520171 18.0498,17.1506 C17.392844,14.7833928 16.975381,12.3561706 16.8037,9.9055 C16.7653946,9.54551415 16.9246409,9.19293536 17.2200522,8.98367656 C17.5154636,8.77441777 17.900905,8.74115938 18.2277955,8.89672191 C18.554686,9.05228444 18.7719745,9.37237336 18.7959,9.7336 C18.9614079,11.9735159 19.3277799,14.194038 19.8906,16.3684 C20.0215051,16.6772779 19.9889803,17.031194 19.8039717,17.3110396 C19.6189631,17.5908852 19.3060719,17.7594483 18.9706,17.76 L18.9707,17.76 Z" id="Shape" fill="#428DFF" fill-rule="nonzero"/><path d="M2,27.22 C1.69661454,27.2199985 1.40963432,27.0822676 1.2198431,26.8455778 C1.03005188,26.6088881 0.957974339,26.298836 1.0239,26.0027 C1.1392,25.4852 2.2039,20.9002 4.1265,19.3265 C5.23555287,18.3824782 6.67211768,17.9138519 8.1245,18.0223 C9.06511454,18.1033305 9.93422081,18.5572924 10.5381,19.283 C10.8663246,19.6863793 11.0903333,20.1642737 11.1904,20.6746 C11.2550654,20.9973243 11.1566183,21.3311919 10.9272,21.5672 C10.353378,22.2107956 10.0245746,23.0359374 9.9985,23.8978 L9.998,23.9051 C9.99388125,24.004623 9.99896956,24.1043136 10.0132,24.2029 C10.0474905,24.4952181 9.95140881,24.7878154 9.7505,25.0029 C9.57356089,25.191435 9.38452727,25.3682427 9.1846,25.5322 C7.2456,27.0996 2.5446,27.2122 2.0146,27.2197 L2,27.22 Z M7.6528,19.9974 C6.82087175,20.0304384 6.02382233,20.340445 5.3882,20.8782 C4.5747,21.5442 3.7954,23.5125 3.312,25.1517 C5.0151,25.0101 7.1011,24.6453 7.9214,23.9822 C7.9463,23.9622 7.9714,23.9402 7.9966,23.9188 C7.9966,23.8714 7.999,23.825 8.002,23.7788 C8.05702541,22.6611523 8.42947535,21.5823414 9.0757,20.6688 C9.04927426,20.6259472 9.01990357,20.584982 8.9878,20.5462 C8.71492632,20.231795 8.32795153,20.0391714 7.9126,20.011 C7.82631124,20.0017196 7.73958638,19.9970796 7.6528,19.9971 L7.6528,19.9974 Z" id="Shape" fill="#428DFF" fill-rule="nonzero"/><path d="M6.9893,14.9907 C5.88328272,14.9767828 4.80435814,14.6465783 3.88,14.0391 C1.7905,12.6938 0.2256,8.2534 0.0537,7.752 C-0.0452362134,7.46273826 -0.00642143338,7.14411111 0.159065827,6.88706112 C0.324553087,6.63001113 0.598530706,6.46278043 0.9028,6.4331 C1.4307,6.3813 6.1211,5.9678 8.2104,7.3125 C9.25310653,7.96285504 10.0590692,8.93124434 10.5093,10.0747 C10.9513833,11.156016 10.8549308,12.382854 10.2493,13.3818 C9.51092491,14.4422248 8.28012229,15.0496598 6.9893,14.9907 Z M4.9624,12.3574 C6.3301,13.2383 7.9814,13.2119 8.5679,12.2993 C8.82423943,11.827105 8.8487339,11.2631419 8.6343,10.7705 C8.33191235,10.034416 7.80468574,9.41269176 7.1279,8.9941 C6.2437,8.4248 4.1338,8.2941 2.4219,8.3441 C3.0845,9.9192 4.0781,11.7884 4.9629,12.3577 L4.9624,12.3574 Z" id="Shape" fill="#428DFF" fill-rule="nonzero"/><path d="M16.2251,11.37 C15.9701568,11.3696841 15.7158524,11.3444982 15.4658,11.2948 C14.0529269,10.968839 12.8252104,10.099684 12.0483,8.8754 C10.6558,6.82 10.9814,2.1206 11.0229,1.5913 C11.0471782,1.28656084 11.2094063,1.0096302 11.4633505,0.83943123 C11.7172948,0.669232255 12.0351022,0.624432664 12.3262,0.7178 C12.8162,0.8755 17.1592,2.3154 18.6089,4.3125 C18.6377,4.3491 18.6636,4.3825 18.6899,4.4225 C18.8008,4.5939 18.8892,4.7384 18.978,4.8941 C19.1613454,5.20465619 19.1632703,5.58987606 18.9830376,5.90224899 C18.8028049,6.21462192 18.4683385,6.40575103 18.1077144,6.40244806 C17.7470903,6.39914509 17.4161809,6.20192177 17.2417,5.8863 C17.1704,5.7618 17.0996,5.6463 17.0195,5.5221 C16.9988613,5.50100138 16.9808321,5.47749965 16.9658,5.4521 C16.3608,4.62 14.5137,3.6921 12.9624,3.0746 C12.9458,4.7821 13.1182,6.8891 13.7075,7.7592 C14.1930783,8.54033007 14.9612751,9.10403019 15.8521,9.3329 C16.2582322,9.43012691 16.6863729,9.36122987 17.0415,9.1415 C17.0771,9.1147 17.1191,9.0858 17.1548,9.0561 C17.26014,8.96760778 17.3493584,8.86154041 17.4185,8.7426 C17.5966157,8.4281354 17.930547,8.2342447 18.2919495,8.23544864 C18.6533519,8.23665257 18.9859841,8.43276379 19.1620007,8.74840811 C19.3380173,9.06405243 19.3300267,9.45010928 19.1411,9.7582 C18.9571918,10.0721033 18.7208749,10.3521863 18.4424,10.5863 C18.3724,10.6454 18.2886,10.7074 18.2036,10.7685 C17.6197658,11.16376 16.9301398,11.3734189 16.2251,11.37 Z" id="Shape" fill="#428DFF" fill-rule="nonzero"/><path d="M20.1953,11.28 C19.7152128,11.2819628 19.2405339,11.1786366 18.8047,10.9773 C16.8047,10.0481 16.1216,7.258 17.2822,4.7573 C18.33,2.5034 22.5142,0.3457 22.9878,0.1069 C23.2607671,-0.0304994197 23.5815769,-0.0355414907 23.858727,0.0932119038 C24.1358771,0.221965298 24.338941,0.470379148 24.41,0.7676 C24.5335,1.2832 25.5852,5.8726 24.5379,8.127 C23.8075806,9.91817198 22.1245751,11.1401395 20.1953,11.28 Z M19.0962,5.6 C18.4116,7.0751 18.6641,8.7069 19.647,9.1635 C20.6299,9.6201 22.04,8.7597 22.7241,7.2851 C23.1689,6.328 23.0088,4.2177 22.7261,2.5336 C21.2561,3.4057 19.5396,4.6454 19.0961,5.6 L19.0962,5.6 Z" id="Shape" fill="#428DFF" fill-rule="nonzero"/><path d="M11.69,30.99 C11.673,30.99 11.6559,30.9895 11.6383,30.9886 C11.3329051,30.9727368 11.0515561,30.8180077 10.8746,30.5686 C10.6105,30.1966 8.2857,26.8645 8.026,24.4251 C7.97970574,23.8829664 8.37535776,23.4033088 8.91640053,23.345648 C9.4574433,23.2879872 9.94529806,23.6734864 10.0143,24.2132 C10.3453168,25.672236 10.9435991,27.0573785 11.7789,28.2986 C12.816,26.9402 13.9444,25.1486 14.0016,24.095 C14.0821,22.4768 13.2374,21.0569 12.1559,20.9978 C11.6861625,20.9936209 11.2389729,21.1988883 10.9359,21.5578 C10.6915963,21.8234471 10.3231071,21.9368443 9.97171807,21.854513 C9.62032905,21.7721817 9.34056587,21.5068973 9.239695,21.160375 C9.13882414,20.8138526 9.2324979,20.4398627 9.4848,20.1818 C10.1892328,19.3943645 11.2078002,18.9616164 12.2636,19.0012 C14.4608,19.1212 16.1361,21.4528 15.9989,24.1994 C15.8637,26.6877 12.7914,30.2517 12.4413,30.6501 C12.2515394,30.8663591 11.9777099,30.9902439 11.69,30.99 Z" id="Shape" fill="#428DFF" fill-rule="nonzero"/><path d="M33.0005,20.2739 C32.6025159,20.2740667 32.2423731,20.0380594 32.0836706,19.673087 C31.9249681,19.3081146 31.9979643,18.8837634 32.2695,18.5928 C35.4477328,15.6057657 39.8415629,14.2797817 44.1416,15.01 C44.5012346,15.0537483 44.8090817,15.2885871 44.9463186,15.6238735 C45.0835556,15.9591599 45.0287168,16.3424506 44.8029689,16.6258035 C44.5772209,16.9091563 44.2158738,17.048251 43.8584,16.9894 C40.203503,16.3536868 36.460651,17.4516763 33.7284,19.9611 C33.5390753,20.1609849 33.2758139,20.274116 33.0005,20.2739 Z" id="Shape" fill="#428DFF" fill-rule="nonzero"/><path d="M37.0293,17.76 C36.6938281,17.7594483 36.3809369,17.5908852 36.1959283,17.3110396 C36.0109197,17.031194 35.9783949,16.6772779 36.1093,16.3684 C36.6721201,14.194038 37.0384921,11.9735159 37.204,9.7336 C37.2279255,9.37237336 37.445214,9.05228444 37.7721045,8.89672191 C38.098995,8.74115938 38.4844364,8.77441777 38.7798478,8.98367656 C39.0752591,9.19293536 39.2345054,9.54551415 39.1962,9.9055 C39.0245063,12.356275 38.6070096,14.7835987 37.95,17.1509 C37.7931248,17.5202865 37.4306181,17.7601071 37.0293,17.76 Z" id="Shape" fill="#428DFF" fill-rule="nonzero"/><path d="M54,27.22 L53.9854,27.22 C53.4554,27.2122 48.7544,27.0994 46.8218,25.5379 C46.6190717,25.3718763 46.4275532,25.1926179 46.2485,25.0013 C46.0482515,24.7863101 45.9525639,24.4942013 45.9868,24.2024 C46.0010304,24.1038136 46.0061188,24.004123 46.002,23.9046 L46.0015,23.8973 C45.9754254,23.0354374 45.646622,22.2102956 45.0728,21.5667 C44.8433817,21.3306919 44.7449346,20.9968243 44.8096,20.6741 C44.9107558,20.1609065 45.1366283,19.6804854 45.4673,19.2752 C46.0708529,18.5530794 46.9377777,18.1018695 47.8755,18.0218 C49.3253336,17.9151709 50.7590807,18.3819906 51.8682,19.3218 C53.7959,20.8994 54.8608,25.4849 54.9761,26.0024 C55.042131,26.2985798 54.9701027,26.6087203 54.780299,26.845484 C54.5904952,27.0822477 54.3034511,27.2200188 54,27.22 Z M48.0034,23.9183 C48.0303,23.9417 48.0576,23.9651 48.0854,23.9876 C48.9023,24.6476 50.9854,25.0115 52.6875,25.1521 C52.2031,23.5115 51.4219,21.5413 50.6064,20.8738 C49.9090848,20.2726466 49.006867,19.9634426 48.0874,20.0105 C47.6753076,20.0377949 47.2908167,20.2272536 47.0181,20.5374 C46.984221,20.579124 46.9530569,20.622981 46.9248,20.6687 C47.5707872,21.5823269 47.943056,22.6611156 47.998,23.7787 C48.001,23.8247 48.0029,23.8716 48.0034,23.9185 L48.0034,23.9183 Z" id="Shape" fill="#428DFF" fill-rule="nonzero"/><path d="M49.0107,14.9907 C47.7200048,15.0496185 46.4892921,14.4424166 45.7507,13.3823 C45.1450908,12.3831643 45.0486422,11.1561895 45.4907,10.0747 C45.9409552,8.93113897 46.747083,7.96271974 47.79,7.3125 C49.8784,5.9668 54.5693,6.3799 55.0972,6.4331 C55.4014693,6.46278043 55.6754469,6.63001113 55.8409342,6.88706112 C56.0064214,7.14411111 56.0452362,7.46273826 55.9463,7.752 C55.7744,8.2534 54.2095,12.6938 52.1201,14.0391 L52.12,14.0391 C51.195673,14.6466447 50.1167286,14.9768552 49.0107,14.9907 Z M52.9175,8.334 C51.5364371,8.24110448 50.1525023,8.46691895 48.8726,8.994 C48.1955513,9.41242233 47.6681186,10.0341832 47.3657,10.7704 C47.1511715,11.2632997 47.1756654,11.8275448 47.4321,12.3 C48.019,13.2111 49.6694,13.238 51.0376,12.3576 C51.9248,11.7863 52.9176,9.9182 53.5791,8.344 C53.3638,8.3374 53.1421,8.334 52.9175,8.334 Z" id="Shape" fill="#428DFF" fill-rule="nonzero"/><path d="M39.7671,11.3706 C39.0824521,11.3772314 38.4115743,11.1782115 37.8413,10.7993 C37.7113,10.707 37.6279,10.645 37.5552,10.584 C37.2777507,10.350255 37.0422646,10.0708372 36.8589,9.7578 C36.6699733,9.44970928 36.6619827,9.06365243 36.8379993,8.74800811 C37.0140159,8.43236379 37.3466481,8.23625257 37.7080505,8.23504864 C38.069453,8.2338447 38.4033843,8.4277354 38.5815,8.7422 C38.6500446,8.860283 38.73844,8.96566057 38.8428,9.0537 C38.8809,9.0854 38.9228,9.1143 38.9644,9.1445 C39.3186383,9.36087695 39.7440478,9.42845362 40.1479,9.3325 C41.0366923,9.10467926 41.8034306,8.54295844 42.2886,7.7642 C42.8809,6.8901 43.0537,4.7827 43.0376,3.0752 C41.4844,3.6952 39.6318,4.6299 39.0093,5.4873 C39.0015,5.4985 38.9551,5.5601 38.9463,5.5703 C38.9004,5.6465 38.8296,5.7617 38.7583,5.8862 C38.5838191,6.20182177 38.2529097,6.39904509 37.8922856,6.40234806 C37.5316615,6.40565103 37.1971951,6.21452192 37.0169624,5.90214899 C36.8367297,5.58977606 36.8386546,5.20455619 37.022,4.894 C37.1108,4.7383 37.1992,4.594 37.2998,4.438 C37.3179,4.4097 37.3672,4.3428 37.3887,4.3164 C38.8408,2.3154 43.1836,0.8755 43.6738,0.7178 C43.9648978,0.624432664 44.2827052,0.669232255 44.5366495,0.83943123 C44.7905937,1.0096302 44.9528218,1.28656084 44.9771,1.5913 C45.0186,2.1206 45.3442,6.8203 43.9478,8.8813 C43.171262,10.1031821 41.9450195,10.9703456 40.5342,11.2953 C40.2815493,11.3452331 40.0246377,11.370452 39.7671,11.3706 Z" id="Shape" fill="#428DFF" fill-rule="nonzero"/><path d="M35.8047,11.28 C33.8751279,11.1402508 32.191818,9.91814299 31.4614,8.1267 C30.4146,5.8728 31.4663,1.2834 31.5898,0.7678 C31.6607944,0.470486509 31.8638707,0.221971789 32.141081,0.0931695902 C32.4182912,-0.0356326084 32.7391868,-0.0305747146 33.0122,0.1069 C33.4858,0.3457 37.6704,2.5034 38.7173,4.7569 C39.8779,7.2569 39.1953,10.0475 37.1953,10.9762 C36.759523,11.177829 36.2848599,11.2815272 35.8047,11.28 Z M33.2747,2.5334 C32.992,4.219 32.8323,6.3298 33.2747,7.2844 C33.9602,8.7595 35.3684,9.6223 36.3528,9.1628 C37.3352,8.7067 37.5877,7.0749 36.9028,5.5998 C36.459,4.6426 34.7441,3.4033 33.2749,2.5332 L33.2747,2.5334 Z" id="Shape" fill="#428DFF" fill-rule="nonzero"/><path d="M44.31,30.99 C44.0223789,30.9901322 43.7486732,30.8662174 43.559,30.65 C43.209,30.2516 40.1366,26.6876 40.0014,24.2037 C39.8642,21.4527 41.5395,19.1207 43.7357,19.0011 C44.7919136,18.9611547 45.8109955,19.3939346 46.5157,20.1817 C46.7680021,20.4397627 46.8616759,20.8137526 46.760805,21.160275 C46.6599341,21.5067973 46.380171,21.7720817 46.0287819,21.854413 C45.6773929,21.9367443 45.3089037,21.8233471 45.0646,21.5577 C44.7578826,21.202933 44.3123715,20.998637 43.8434,20.9977 C42.7628,21.0568 41.9181,22.4767 41.9986,24.0993 C42.0563,25.1515 43.1837,26.9416 44.2208,28.2985 C45.055752,27.0570285 45.654161,25.6719851 45.9859,24.2131 C46.0167229,23.8521448 46.2403528,23.5360861 46.5704801,23.386906 C46.9006073,23.2377259 47.2856008,23.278756 47.576873,23.4941608 C47.8681453,23.7095655 48.0201418,24.0656561 47.9742,24.425 C47.7142,26.8644 45.3897,30.1965 45.1256,30.5685 C44.9486439,30.8179077 44.6672949,30.9726368 44.3619,30.9885 C44.3442,30.99 44.3271,30.99 44.31,30.99 Z" id="Shape" fill="#428DFF" fill-rule="nonzero"/><path d="M23,51 C22.7349187,50.9978723 22.480769,50.8940647 22.29,50.71 C22.25,50.66 22.21,50.61 22.17,50.56 C22.132172,50.504244 22.101908,50.443716 22.08,50.38 C22.0496265,50.3204221 22.029351,50.2562165 22.02,50.19 C22.0082893,50.1272996 22.0016014,50.0637646 22,50 C22.0036835,49.735233 22.1072663,49.4816338 22.29,49.29 C22.34,49.25 22.39,49.21 22.44,49.17 C22.4957944,49.1322377 22.5563135,49.1019781 22.62,49.08 C22.6766601,49.0511067 22.737336,49.0308814 22.8,49.02 C22.9316101,48.9896843 23.0683899,48.9896843 23.2,49.02 C23.262664,49.0308814 23.3233399,49.0511067 23.38,49.08 C23.443716,49.101908 23.504244,49.132172 23.56,49.17 C23.61,49.21 23.66,49.25 23.71,49.29 C23.7981227,49.3873598 23.869126,49.4989365 23.92,49.62 C23.971241,49.7402223 23.99842,49.8693227 24,50 C23.9959431,50.2646908 23.8924138,50.5181592 23.71,50.71 C23.519231,50.8940647 23.2650813,50.9978723 23,51 Z" id="Shape" fill="#428DFF" fill-rule="nonzero"/><path d="M23,54 C22.9329713,53.9976607 22.8661646,53.99098 22.8,53.98 C22.7373999,53.9688658 22.6767606,53.9486527 22.62,53.92 C22.5563135,53.8980219 22.4957944,53.8677623 22.44,53.83 C22.39,53.79 22.34,53.75 22.29,53.71 C22.1073844,53.5182897 22.0038214,53.2647389 22,53 C22.00158,52.8693227 22.028759,52.7402223 22.08,52.62 C22.1307152,52.4988534 22.2017349,52.3872512 22.29,52.29 C22.3373619,52.2468095 22.3874664,52.2067259 22.44,52.17 C22.4957944,52.1322377 22.5563135,52.1019781 22.62,52.08 C22.6766601,52.0511067 22.737336,52.0308814 22.8,52.02 C22.9316101,51.9896843 23.0683899,51.9896843 23.2,52.02 C23.262664,52.0308814 23.3233399,52.0511067 23.38,52.08 C23.443716,52.101908 23.504244,52.132172 23.56,52.17 C23.6123461,52.2069758 23.6624354,52.2470473 23.71,52.29 C23.8003288,52.3856601 23.8716001,52.4976578 23.92,52.62 C24.0267162,52.8620948 24.0267162,53.1379052 23.92,53.38 C23.8714288,53.5022547 23.800177,53.6142217 23.71,53.71 C23.66,53.75 23.61,53.79 23.56,53.83 C23.504244,53.867828 23.443716,53.898092 23.38,53.92 C23.3232394,53.9486527 23.2626001,53.9688658 23.2,53.98 C23.1338381,53.9910004 23.0670301,53.9976812 23,54 Z" id="Shape" fill="#428DFF" fill-rule="nonzero"/><path d="M28,51 C27.8693227,50.99842 27.7402223,50.971241 27.62,50.92 C27.4989365,50.869126 27.3873598,50.7981227 27.29,50.71 C27.1996808,50.6143324 27.1284108,50.5023366 27.08,50.38 C27.0287342,50.2597855 27.0015541,50.1306801 27,50 C27.0036835,49.735233 27.1072663,49.4816338 27.29,49.29 C27.3872512,49.2017349 27.4988534,49.1307152 27.62,49.08 C27.9924897,48.9242958 28.4220218,49.0070497 28.71,49.29 C28.8024006,49.3840297 28.8739545,49.4964715 28.92,49.62 C29.0267162,49.8620948 29.0267162,50.1379052 28.92,50.38 C28.7760763,50.7610386 28.4071998,51.0096292 28,51 Z" id="Shape" fill="#428DFF" fill-rule="nonzero"/><path d="M28,54 C27.8693227,53.99842 27.7402223,53.971241 27.62,53.92 C27.2391181,53.7758784 26.990613,53.4071289 27,53 C27.00158,52.8693227 27.028759,52.7402223 27.08,52.62 C27.1717573,52.3693008 27.3693008,52.1717573 27.62,52.08 C27.9924897,51.9242958 28.4220218,52.0070497 28.71,52.29 C28.8003288,52.3856601 28.8716001,52.4976578 28.92,52.62 C28.971241,52.7402223 28.99842,52.8693227 29,53 C29.0027011,53.2660353 28.8982118,53.5219616 28.7100867,53.7100867 C28.5219616,53.8982118 28.2660353,54.0027011 28,54 Z" id="Shape" fill="#428DFF" fill-rule="nonzero"/><path d="M33,51 C32.5956764,50.9983571 32.231783,50.7543635 32.0767379,50.3809451 C31.9216928,50.0075267 32.0057477,49.5775429 32.29,49.29 C32.3872512,49.2017349 32.4988534,49.1307152 32.62,49.08 C32.9923971,48.9234033 33.4224393,49.0062554 33.71,49.29 C33.8003288,49.3856601 33.8716001,49.4976578 33.92,49.62 C33.971241,49.7402223 33.99842,49.8693227 34,50 C34.0027011,50.2660353 33.8982118,50.5219616 33.7100867,50.7100867 C33.5219616,50.8982118 33.2660353,51.0027011 33,51 Z" id="Shape" fill="#428DFF" fill-rule="nonzero"/><path d="M33,54 C32.8693227,53.99842 32.7402223,53.971241 32.62,53.92 C32.4989365,53.869126 32.3873598,53.7981227 32.29,53.71 C31.9006061,53.317413 31.9018995,52.683887 32.2928932,52.2928932 C32.683887,51.9018995 33.317413,51.9006061 33.71,52.29 C33.7981227,52.3873598 33.869126,52.4989365 33.92,52.62 C33.971241,52.7402223 33.99842,52.8693227 34,53 C34.0027011,53.2660353 33.8982118,53.5219616 33.7100867,53.7100867 C33.5219616,53.8982118 33.2660353,54.0027011 33,54 Z" id="Shape" fill="#428DFF" fill-rule="nonzero"/></g></g></svg>
