<?xml version="1.0" encoding="UTF-8"?>
<svg xmlns="http://www.w3.org/2000/svg" xmlns:xlink="http://www.w3.org/1999/xlink" width="512" height="512" viewBox="0 0 58 60" version="1.1"><!-- Generator: Sketch 51.3 (57544) - http://www.bohemiancoding.com/sketch --><title>008 - Family Tree</title><desc>Created with Sketch.</desc><defs/><g id="Page-1" stroke="none" stroke-width="1" fill="none" fill-rule="evenodd"><g id="008---Family-Tree" fill-rule="nonzero"><path d="M27,9 C27.0005838,11.1219108 26.1579165,13.1570813 24.6574989,14.6574989 C23.1570813,16.1579165 21.1219108,17.0005838 19,17 C18.4967644,16.9994368 17.994648,16.9525726 17.5,16.86 C13.7280666,16.1390137 11.0000998,12.8402217 11.0000998,9 C11.0000998,5.15977832 13.7280666,1.86098627 17.5,1.14 C17.994648,1.04742743 18.4967644,1.00056323 19,1 C21.1219108,0.999416234 23.1570813,1.84208349 24.6574989,3.34250108 C26.1579165,4.84291867 27.0005838,6.87808917 27,9 Z" id="Shape" fill="#CAD9FC"/><path d="M37,30 C37.0005838,32.1219108 36.1579165,34.1570813 34.6574989,35.6574989 C33.1570813,37.1579165 31.1219108,38.0005838 29,38 C28.4967644,37.9994368 27.994648,37.9525726 27.5,37.86 C23.7280666,37.1390137 21.0000998,33.8402217 21.0000998,30 C21.0000998,26.1597783 23.7280666,22.8609863 27.5,22.14 C27.994648,22.0474274 28.4967644,22.0005632 29,22 C31.1219108,21.9994162 33.1570813,22.8420835 34.6574989,24.3425011 C36.1579165,25.8429187 37.0005838,27.8780892 37,30 Z" id="Shape" fill="#CAD9FC"/><path d="M17,30 C17.0005838,32.1219108 16.1579165,34.1570813 14.6574989,35.6574989 C13.1570813,37.1579165 11.1219108,38.0005838 9,38 C8.49676445,37.9994368 7.99464802,37.9525726 7.5,37.86 C3.72806663,37.1390137 1.00009984,33.8402217 1.00009984,30 C1.00009984,26.1597783 3.72806663,22.8609863 7.5,22.14 C7.99464802,22.0474274 8.49676445,22.0005632 9,22 C11.1219108,21.9994162 13.1570813,22.8420835 14.6574989,24.3425011 C16.1579165,25.8429187 17.0005838,27.8780892 17,30 Z" id="Shape" fill="#CAD9FC"/><path d="M48,51 C48.0005838,53.1219108 47.1579165,55.1570813 45.6574989,56.6574989 C44.1570813,58.1579165 42.1219108,59.0005838 40,59 C39.4967644,58.9994368 38.994648,58.9525726 38.5,58.86 C34.7280666,58.1390137 32.0000998,54.8402217 32.0000998,51 C32.0000998,47.1597783 34.7280666,43.8609863 38.5,43.14 C38.994648,43.0474274 39.4967644,43.0005632 40,43 C42.1219108,42.9994162 44.1570813,43.8420835 45.6574989,45.3425011 C47.1579165,46.8429187 48.0005838,48.8780892 48,51 Z" id="Shape" fill="#CAD9FC"/><path d="M57,30 C57.0005838,32.1219108 56.1579165,34.1570813 54.6574989,35.6574989 C53.1570813,37.1579165 51.1219108,38.0005838 49,38 C48.4967644,37.9994368 47.994648,37.9525726 47.5,37.86 C43.7280666,37.1390137 41.0000998,33.8402217 41.0000998,30 C41.0000998,26.1597783 43.7280666,22.8609863 47.5,22.14 C47.994648,22.0474274 48.4967644,22.0005632 49,22 C51.1219108,21.9994162 53.1570813,22.8420835 54.6574989,24.3425011 C56.1579165,25.8429187 57.0005838,27.8780892 57,30 Z" id="Shape" fill="#CAD9FC"/><path d="M47,9 C47.0005838,11.1219108 46.1579165,13.1570813 44.6574989,14.6574989 C43.1570813,16.1579165 41.1219108,17.0005838 39,17 C38.4967644,16.9994368 37.994648,16.9525726 37.5,16.86 C33.7280666,16.1390137 31.0000998,12.8402217 31.0000998,9 C31.0000998,5.15977832 33.7280666,1.86098627 37.5,1.14 C37.994648,1.04742743 38.4967644,1.00056323 39,1 C41.1219108,0.999416234 43.1570813,1.84208349 44.6574989,3.34250108 C46.1579165,4.84291867 47.0005838,6.87808917 47,9 Z" id="Shape" fill="#CAD9FC"/><ellipse id="Oval" fill="#E8EDFC" cx="17.5" cy="9" rx="6.5" ry="7.86"/><ellipse id="Oval" fill="#E8EDFC" cx="27.5" cy="30" rx="6.5" ry="7.86"/><ellipse id="Oval" fill="#E8EDFC" cx="7.5" cy="30" rx="6.5" ry="7.86"/><ellipse id="Oval" fill="#E8EDFC" cx="38.5" cy="51" rx="6.5" ry="7.86"/><ellipse id="Oval" fill="#E8EDFC" cx="47.5" cy="30" rx="6.5" ry="7.86"/><ellipse id="Oval" fill="#E8EDFC" cx="37.5" cy="9" rx="6.5" ry="7.86"/><path d="M24.81,14.5 L22.72,15.22 L19,16.5 L13.19,14.5 C13.5137987,13.2369221 14.2448372,12.1157622 15.27,11.31 C15.8113592,10.8695821 16.4279649,10.5307878 17.09,10.31 L20.91,10.31 C22.8334961,10.9594759 24.2999162,12.5349374 24.81,14.5 Z" id="Shape" fill="#A4C2F7"/><circle id="Oval" fill="#E8EDFC" cx="19" cy="8" r="3"/><path d="M34.81,35.5 L32.72,36.22 L29,37.5 L23.19,35.5 C23.5137987,34.2369221 24.2448372,33.1157622 25.27,32.31 C25.8113592,31.8695821 26.4279649,31.5307878 27.09,31.31 L30.91,31.31 C32.8334961,31.9594759 34.2999162,33.5349374 34.81,35.5 Z" id="Shape" fill="#7FACFA"/><path d="M32.72,36.22 L29,37.5 L23.19,35.5 C23.5137987,34.2369221 24.2448372,33.1157622 25.27,32.31 L28.91,32.31 C30.736236,32.9226449 32.1548645,34.3785078 32.72,36.22 Z" id="Shape" fill="#A4C2F7"/><circle id="Oval" fill="#E8EDFC" cx="29" cy="29" r="3"/><path d="M14.81,35.5 L12.72,36.22 L9,37.5 L3.19,35.5 C3.51379874,34.2369221 4.24483719,33.1157622 5.27,32.31 C5.8113592,31.8695821 6.42796489,31.5307878 7.09,31.31 L10.91,31.31 C12.8334961,31.9594759 14.2999162,33.5349374 14.81,35.5 Z" id="Shape" fill="#CAD9FC"/><circle id="Oval" fill="#E8EDFC" cx="9" cy="29" r="3"/><path d="M45.81,56.5 L43.72,57.22 L40,58.5 L34.19,56.5 C34.5137987,55.2369221 35.2448372,54.1157622 36.27,53.31 C36.8113592,52.8695821 37.4279649,52.5307878 38.09,52.31 L41.91,52.31 C43.8334961,52.9594759 45.2999162,54.5349374 45.81,56.5 Z" id="Shape" fill="#CAD9FC"/><path d="M43.72,57.22 L40,58.5 L34.19,56.5 C34.5137987,55.2369221 35.2448372,54.1157622 36.27,53.31 L39.91,53.31 C41.736236,53.9226449 43.1548645,55.3785078 43.72,57.22 Z" id="Shape" fill="#E8EDFC"/><circle id="Oval" fill="#E8EDFC" cx="40" cy="50" r="3"/><path d="M54.81,35.5 L52.73,36.25 L49.25,37.5 L43.19,35.5 C43.5137987,34.2369221 44.2448372,33.1157622 45.27,32.31 C45.8113592,31.8695821 46.4279649,31.5307878 47.09,31.31 L50.91,31.31 C52.8334961,31.9594759 54.2999162,33.5349374 54.81,35.5 Z" id="Shape" fill="#7FACFA"/><circle id="Oval" fill="#E8EDFC" cx="49" cy="29" r="3"/><path d="M44.81,14.5 L42.73,15.24 L39.21,16.5 L33.19,14.5 C33.5137987,13.2369221 34.2448372,12.1157622 35.27,11.31 C35.8113592,10.8695821 36.4279649,10.5307878 37.09,10.31 L40.91,10.31 C42.8334961,10.9594759 44.2999162,12.5349374 44.81,14.5 Z" id="Shape" fill="#CAD9FC"/><path d="M22.72,15.22 L19,16.5 L13.19,14.5 C13.5137987,13.2369221 14.2448372,12.1157622 15.27,11.31 L18.91,11.31 C20.736236,11.9226449 22.1548645,13.3785078 22.72,15.22 Z" id="Shape" fill="#CAD9FC"/><path d="M12.72,36.22 L9,37.5 L3.19,35.5 C3.51379874,34.2369221 4.24483719,33.1157622 5.27,32.31 L8.91,32.31 C10.736236,32.9226449 12.1548645,34.3785078 12.72,36.22 Z" id="Shape" fill="#E8EDFC"/><path d="M52.73,36.25 L49.25,37.5 L43.19,35.5 C43.5137987,34.2369221 44.2448372,33.1157622 45.27,32.31 L48.91,32.31 C50.7474893,32.9252519 52.1718582,34.3943654 52.73,36.25 Z" id="Shape" fill="#A4C2F7"/><path d="M42.73,15.24 L39.21,16.5 L33.19,14.5 C33.5137987,13.2369221 34.2448372,12.1157622 35.27,11.31 L38.91,11.31 C40.7426277,11.9272642 42.164997,13.3905917 42.73,15.24 Z" id="Shape" fill="#E8EDFC"/><circle id="Oval" fill="#E8EDFC" cx="39" cy="8" r="3"/><path d="M13.19,14.5 L13.1993,14.5032 C14.3497136,15.721051 15.8544601,16.5456578 17.5,16.86 C17.994648,16.9525726 18.4967644,16.9994368 19,17 C19.4988708,16.9985121 19.9965192,16.9505718 20.4865,16.8568 C18.8461668,16.5407422 17.3465312,15.7174678 16.1993,14.5032 L16.19,14.5 L16.1918,14.4949 C14.1827152,12.3746218 13.4896856,9.32752273 14.3841077,6.5468734 C15.2785297,3.76622407 17.6180531,1.69457424 20.4865,1.1432 C19.9965192,1.04942821 19.4988708,1.00148791 19,1 C18.4967644,1.00056323 17.994648,1.04742743 17.5,1.14 C14.628145,1.68706462 12.2837558,3.75777212 11.3862026,6.54007854 C10.4886495,9.32238496 11.1810216,12.372731 13.1918,14.4949 L13.19,14.5 Z" id="Shape" fill="#FFFFFF"/><path d="M10.4865,37.8568 C8.84616677,37.5407422 7.34653121,36.7174678 6.1993,35.5032 L6.19,35.5 L6.1918,35.4949 C4.18271522,33.3746218 3.48968564,30.3275227 4.38410767,27.5468734 C5.2785297,24.7662241 7.61805305,22.6945742 10.4865,22.1432 C9.99651923,22.0494282 9.49887082,22.0014879 9,22 C8.49676445,22.0005632 7.99464802,22.0474274 7.5,22.14 C4.62814503,22.6870646 2.28375579,24.7577721 1.38620264,27.5400785 C0.488649496,30.322385 1.18102165,33.372731 3.1918,35.4949 L3.19,35.5 L3.1993,35.5032 C4.34971364,36.721051 5.85446012,37.5456578 7.5,37.86 C7.99464802,37.9525726 8.49676445,37.9994368 9,38 C9.49887082,37.9985121 9.99651923,37.9505718 10.4865,37.8568 Z" id="Shape" fill="#FFFFFF"/><path d="M19,2 C15.1340068,2 12,5.13400675 12,9 C12,12.8659932 15.1340068,16 19,16 L19,18 C14.0294373,18 10,13.9705627 10,9 C10,4.02943725 14.0294373,9.13077564e-16 19,0 L19,2 Z" id="Shape" fill="#FFFFFF"/><path d="M14.3228,2.5191 C14.6219977,2.93868892 15.1801903,3.08132123 15.644,2.8567 C16.6771318,2.30446981 17.828587,2.01053307 19,2 L19,0 C17.4928601,0.0107012213 16.0111109,0.389119487 14.6834,1.1024 C14.4320835,1.22759126 14.2477536,1.45603093 14.1784956,1.72812677 C14.1092377,2.0002226 14.1619202,2.28899028 14.3228,2.5191 Z" id="Shape" fill="#428DFF"/><path d="M19,18 L19,16 C15.2867459,15.9940154 12.2240469,13.0900814 12.0206,9.3824 C11.9989478,9.09099319 12.0007537,8.79831744 12.026,8.5072 C12.0308533,7.98887349 11.6631194,7.54176741 11.1536,7.4465 C10.8786948,7.39848614 10.5965168,7.47270422 10.3808087,7.64975855 C10.1651005,7.82681287 10.0372979,8.08910896 10.0308,8.3681 C9.99993662,8.74134119 9.99749625,9.11638879 10.0235,9.49 C10.2841258,14.2588991 14.2239882,17.9940107 19,18 Z" id="Shape" fill="#428DFF"/><path d="M13.113,5.2233 C13.2341402,5.0172349 13.2800829,4.77554114 13.243,4.5394 L13.1913,4.3579 C13.1686158,4.29413405 13.138651,4.2331979 13.102,4.1763 C13.0751571,4.11903571 13.0408598,4.06557233 13,4.0173 C12.9565602,3.966734 12.9097893,3.91912791 12.86,3.8748 C12.6551856,3.70283175 12.3860639,3.62773139 12.1218,3.6688 C11.8386164,3.72927104 11.5911593,3.89999657 11.4340908,4.14326428 C11.2770222,4.38653199 11.2232672,4.68232345 11.2847,4.9653 C11.3248048,5.09479698 11.3916843,5.21441688 11.481,5.3164 C11.5653297,5.41700378 11.6698536,5.49876953 11.7878,5.5564 C12.0246062,5.6631116 12.2904163,5.68709685 12.5425,5.6245 C12.774522,5.56328592 12.9769242,5.42094808 13.113,5.2233 Z" id="Shape" fill="#428DFF"/><path d="M19,18 C18.4477153,18 18,17.5522847 18,17 C18,16.4477153 18.4477153,16 19,16 C22.8659932,16 26,12.8659932 26,9 C26,5.13400675 22.8659932,2 19,2 C18.4477153,2 18,1.55228475 18,1 C18,0.44771525 18.4477153,1.01453063e-16 19,0 C23.9705627,1.19253761e-15 28,4.02943725 28,9 C28,13.9705627 23.9705627,18 19,18 Z" id="Shape" fill="#428DFF"/><path d="M13.1914,15.5005 C13.106718,15.5002741 13.0223968,15.4894568 12.9404,15.4683 C12.6835836,15.4018835 12.4636784,15.2361496 12.3290777,15.0075703 C12.194477,14.7789911 12.1562107,14.5062976 12.2227,14.2495 C12.8104068,11.9530192 14.5240972,10.1121391 16.7727,9.3618 C17.1126543,9.2440322 17.4896673,9.3179576 17.759974,9.5553865 C18.0302807,9.79281541 18.1522109,10.157146 18.0792694,10.5094494 C18.0063279,10.8617529 17.7497594,11.1477185 17.4074,11.2583 C15.801717,11.795227 14.5782264,13.1103005 14.1584,14.7505 C14.0445167,15.1915697 13.6469344,15.4999324 13.1914,15.5005 Z" id="Shape" fill="#428DFF"/><path d="M24.8086,15.5005 C24.3531401,15.4998414 23.9556646,15.1914977 23.8418,14.7505 C23.4219736,13.1103005 22.198483,11.795227 20.5928,11.2583 C20.2504406,11.1477185 19.9938721,10.8617529 19.9209306,10.5094494 C19.8479891,10.157146 19.9699193,9.79281541 20.240226,9.5553865 C20.5105327,9.3179576 20.8875457,9.2440322 21.2275,9.3618 C23.4761028,10.1121391 25.1897932,11.9530192 25.7775,14.2495 C25.8547009,14.5491357 25.7890215,14.8676316 25.5995796,15.1122809 C25.4101378,15.3569302 25.1182212,15.5002414 24.8088,15.5005 L24.8086,15.5005 Z" id="Shape" fill="#428DFF"/><path d="M19,12 C16.790861,12 15,10.209139 15,8 C15,5.790861 16.790861,4 19,4 C21.209139,4 23,5.790861 23,8 C22.9976851,10.2081794 21.2081794,11.9976851 19,12 Z M19,6 C17.8954305,6 17,6.8954305 17,8 C17,9.1045695 17.8954305,10 19,10 C20.1045695,10 21,9.1045695 21,8 C20.9987325,6.89595593 20.1040441,6.00126747 19,6 Z" id="Shape" fill="#428DFF"/><path d="M29,39 C24.0294373,39 20,34.9705627 20,30 C20,25.0294373 24.0294373,21 29,21 C33.9705627,21 38,25.0294373 38,30 C37.9944889,34.9682782 33.9682782,38.9944889 29,39 Z M29,23 C25.1340068,23 22,26.1340068 22,30 C22,33.8659932 25.1340068,37 29,37 C32.8659932,37 36,33.8659932 36,30 C35.9955364,26.1358572 32.8641428,23.0044636 29,23 Z" id="Shape" fill="#428DFF"/><path d="M23.1914,36.5005 C23.106718,36.5002741 23.0223968,36.4894568 22.9404,36.4683 C22.6835836,36.4018835 22.4636784,36.2361496 22.3290777,36.0075703 C22.194477,35.7789911 22.1562107,35.5062976 22.2227,35.2495 C22.8104068,32.9530192 24.5240972,31.1121391 26.7727,30.3618 C27.1126543,30.2440322 27.4896673,30.3179576 27.759974,30.5553865 C28.0302807,30.7928154 28.1522109,31.157146 28.0792694,31.5094494 C28.0063279,31.8617529 27.7497594,32.1477185 27.4074,32.2583 C25.801717,32.795227 24.5782264,34.1103005 24.1584,35.7505 C24.0445167,36.1915697 23.6469344,36.4999324 23.1914,36.5005 Z" id="Shape" fill="#428DFF"/><path d="M34.8086,36.5005 C34.3531401,36.4998414 33.9556646,36.1914977 33.8418,35.7505 C33.4219736,34.1103005 32.198483,32.795227 30.5928,32.2583 C30.2504406,32.1477185 29.9938721,31.8617529 29.9209306,31.5094494 C29.8479891,31.157146 29.9699193,30.7928154 30.240226,30.5553865 C30.5105327,30.3179576 30.8875457,30.2440322 31.2275,30.3618 C33.4761028,31.1121391 35.1897932,32.9530192 35.7775,35.2495 C35.8547009,35.5491357 35.7890215,35.8676316 35.5995796,36.1122809 C35.4101378,36.3569302 35.1182212,36.5002414 34.8088,36.5005 L34.8086,36.5005 Z" id="Shape" fill="#428DFF"/><path d="M29,33 C26.790861,33 25,31.209139 25,29 C25,26.790861 26.790861,25 29,25 C31.209139,25 33,26.790861 33,29 C32.9976851,31.2081794 31.2081794,32.9976851 29,33 Z M29,27 C27.8954305,27 27,27.8954305 27,29 C27,30.1045695 27.8954305,31 29,31 C30.1045695,31 31,30.1045695 31,29 C30.9987325,27.8959559 30.1040441,27.0012675 29,27 Z" id="Shape" fill="#428DFF"/><path d="M9,39 C4.02943725,39 6.66133815e-16,34.9705627 0,30 C-6.66133815e-16,25.0294373 4.02943725,21 9,21 C13.9705627,21 18,25.0294373 18,30 C17.9944889,34.9682782 13.9682782,38.9944889 9,39 Z M9,23 C5.13400675,23 2,26.1340068 2,30 C2,33.8659932 5.13400675,37 9,37 C12.8659932,37 16,33.8659932 16,30 C15.9955364,26.1358572 12.8641428,23.0044636 9,23 Z" id="Shape" fill="#428DFF"/><path d="M3.1914,36.5005 C3.10671802,36.5002741 3.02239683,36.4894568 2.9404,36.4683 C2.40584697,36.3299853 2.08455957,35.7845981 2.2227,35.25 C2.8104068,32.9535192 4.52409717,31.1126391 6.7727,30.3623 C7.11265433,30.2445322 7.48966727,30.3184576 7.75997398,30.5558865 C8.03028068,30.7933154 8.15221087,31.157646 8.07926939,31.5099494 C8.0063279,31.8622529 7.74975935,32.1482185 7.4074,32.2588 C5.80171698,32.795727 4.57822643,34.1108005 4.1584,35.751 C4.04432495,36.1918712 3.64679025,36.4999914 3.1914,36.5005 Z" id="Shape" fill="#428DFF"/><path d="M14.8086,36.5005 C14.3531401,36.4998414 13.9556646,36.1914977 13.8418,35.7505 C13.4219736,34.1103005 12.198483,32.795227 10.5928,32.2583 C10.2504406,32.1477185 9.9938721,31.8617529 9.92093061,31.5094494 C9.84798913,31.157146 9.96991932,30.7928154 10.240226,30.5553865 C10.5105327,30.3179576 10.8875457,30.2440322 11.2275,30.3618 C13.4761028,31.1121391 15.1897932,32.9530192 15.7775,35.2495 C15.8547009,35.5491357 15.7890215,35.8676316 15.5995796,36.1122809 C15.4101378,36.3569302 15.1182212,36.5002414 14.8088,36.5005 L14.8086,36.5005 Z" id="Shape" fill="#428DFF"/><path d="M9,33 C6.790861,33 5,31.209139 5,29 C5,26.790861 6.790861,25 9,25 C11.209139,25 13,26.790861 13,29 C12.9976851,31.2081794 11.2081794,32.9976851 9,33 Z M9,27 C7.8954305,27 7,27.8954305 7,29 C7,30.1045695 7.8954305,31 9,31 C10.1045695,31 11,30.1045695 11,29 C10.9987325,27.8959559 10.1040441,27.0012675 9,27 Z" id="Shape" fill="#428DFF"/><path d="M40,60 C35.0294373,60 31,55.9705627 31,51 C31,46.0294373 35.0294373,42 40,42 C44.9705627,42 49,46.0294373 49,51 C48.9944889,55.9682782 44.9682782,59.9944889 40,60 Z M40,44 C36.1340068,44 33,47.1340068 33,51 C33,54.8659932 36.1340068,58 40,58 C43.8659932,58 47,54.8659932 47,51 C46.9955364,47.1358572 43.8641428,44.0044636 40,44 Z" id="Shape" fill="#428DFF"/><path d="M34.1914,57.5005 C34.106718,57.5002741 34.0223968,57.4894568 33.9404,57.4683 C33.6835836,57.4018835 33.4636784,57.2361496 33.3290777,57.0075703 C33.194477,56.7789911 33.1562107,56.5062976 33.2227,56.2495 C33.8104068,53.9530192 35.5240972,52.1121391 37.7727,51.3618 C38.1126543,51.2440322 38.4896673,51.3179576 38.759974,51.5553865 C39.0302807,51.7928154 39.1522109,52.157146 39.0792694,52.5094494 C39.0063279,52.8617529 38.7497594,53.1477185 38.4074,53.2583 C36.801717,53.795227 35.5782264,55.1103005 35.1584,56.7505 C35.0445167,57.1915697 34.6469344,57.4999324 34.1914,57.5005 Z" id="Shape" fill="#428DFF"/><path d="M45.8086,57.5005 C45.3531401,57.4998414 44.9556646,57.1914977 44.8418,56.7505 C44.4219736,55.1103005 43.198483,53.795227 41.5928,53.2583 C41.2504406,53.1477185 40.9938721,52.8617529 40.9209306,52.5094494 C40.8479891,52.157146 40.9699193,51.7928154 41.240226,51.5553865 C41.5105327,51.3179576 41.8875457,51.2440322 42.2275,51.3618 C44.4761028,52.1121391 46.1897932,53.9530192 46.7775,56.2495 C46.8547009,56.5491357 46.7890215,56.8676316 46.5995796,57.1122809 C46.4101378,57.3569302 46.1182212,57.5002414 45.8088,57.5005 L45.8086,57.5005 Z" id="Shape" fill="#428DFF"/><path d="M40,54 C37.790861,54 36,52.209139 36,50 C36,47.790861 37.790861,46 40,46 C42.209139,46 44,47.790861 44,50 C43.9976851,52.2081794 42.2081794,53.9976851 40,54 Z M40,48 C38.8954305,48 38,48.8954305 38,50 C38,51.1045695 38.8954305,52 40,52 C41.1045695,52 42,51.1045695 42,50 C41.9987325,48.8959559 41.1040441,48.0012675 40,48 Z" id="Shape" fill="#428DFF"/><path d="M49,39 C44.0294373,39 40,34.9705627 40,30 C40,25.0294373 44.0294373,21 49,21 C53.9705627,21 58,25.0294373 58,30 C57.9944889,34.9682782 53.9682782,38.9944889 49,39 Z M49,23 C45.1340068,23 42,26.1340068 42,30 C42,33.8659932 45.1340068,37 49,37 C52.8659932,37 56,33.8659932 56,30 C55.9955364,26.1358572 52.8641428,23.0044636 49,23 Z" id="Shape" fill="#428DFF"/><path d="M43.1914,36.5005 C43.106718,36.5002741 43.0223968,36.4894568 42.9404,36.4683 C42.6835836,36.4018835 42.4636784,36.2361496 42.3290777,36.0075703 C42.194477,35.7789911 42.1562107,35.5062976 42.2227,35.2495 C42.8104068,32.9530192 44.5240972,31.1121391 46.7727,30.3618 C47.1126543,30.2440322 47.4896673,30.3179576 47.759974,30.5553865 C48.0302807,30.7928154 48.1522109,31.157146 48.0792694,31.5094494 C48.0063279,31.8617529 47.7497594,32.1477185 47.4074,32.2583 C45.801717,32.795227 44.5782264,34.1103005 44.1584,35.7505 C44.0445167,36.1915697 43.6469344,36.4999324 43.1914,36.5005 Z" id="Shape" fill="#428DFF"/><path d="M54.8086,36.5005 C54.3531401,36.4998414 53.9556646,36.1914977 53.8418,35.7505 C53.4219736,34.1103005 52.198483,32.795227 50.5928,32.2583 C50.2504406,32.1477185 49.9938721,31.8617529 49.9209306,31.5094494 C49.8479891,31.157146 49.9699193,30.7928154 50.240226,30.5553865 C50.5105327,30.3179576 50.8875457,30.2440322 51.2275,30.3618 C53.4761028,31.1121391 55.1897932,32.9530192 55.7775,35.2495 C55.8547009,35.5491357 55.7890215,35.8676316 55.5995796,36.1122809 C55.4101378,36.3569302 55.1182212,36.5002414 54.8088,36.5005 L54.8086,36.5005 Z" id="Shape" fill="#428DFF"/><path d="M49,33 C46.790861,33 45,31.209139 45,29 C45,26.790861 46.790861,25 49,25 C51.209139,25 53,26.790861 53,29 C52.9976851,31.2081794 51.2081794,32.9976851 49,33 Z M49,27 C47.8954305,27 47,27.8954305 47,29 C47,30.1045695 47.8954305,31 49,31 C50.1045695,31 51,30.1045695 51,29 C50.9987325,27.8959559 50.1040441,27.0012675 49,27 Z" id="Shape" fill="#428DFF"/><path d="M39,18 C34.0294373,18 30,13.9705627 30,9 C30,4.02943725 34.0294373,9.13077564e-16 39,0 C43.9705627,-9.13077564e-16 48,4.02943725 48,9 C47.9944889,13.9682782 43.9682782,17.9944889 39,18 Z M39,2 C35.1340068,2 32,5.13400675 32,9 C32,12.8659932 35.1340068,16 39,16 C42.8659932,16 46,12.8659932 46,9 C45.9955364,5.13585715 42.8641428,2.00446362 39,2 Z" id="Shape" fill="#428DFF"/><path d="M33.1914,15.5005 C33.106718,15.5002741 33.0223968,15.4894568 32.9404,15.4683 C32.6835836,15.4018835 32.4636784,15.2361496 32.3290777,15.0075703 C32.194477,14.7789911 32.1562107,14.5062976 32.2227,14.2495 C32.8104068,11.9530192 34.5240972,10.1121391 36.7727,9.3618 C37.1126543,9.2440322 37.4896673,9.3179576 37.759974,9.5553865 C38.0302807,9.79281541 38.1522109,10.157146 38.0792694,10.5094494 C38.0063279,10.8617529 37.7497594,11.1477185 37.4074,11.2583 C35.801717,11.795227 34.5782264,13.1103005 34.1584,14.7505 C34.0445167,15.1915697 33.6469344,15.4999324 33.1914,15.5005 Z" id="Shape" fill="#428DFF"/><path d="M44.8086,15.5005 C44.3531401,15.4998414 43.9556646,15.1914977 43.8418,14.7505 C43.4219736,13.1103005 42.198483,11.795227 40.5928,11.2583 C40.2504406,11.1477185 39.9938721,10.8617529 39.9209306,10.5094494 C39.8479891,10.157146 39.9699193,9.79281541 40.240226,9.5553865 C40.5105327,9.3179576 40.8875457,9.2440322 41.2275,9.3618 C43.4761028,10.1121391 45.1897932,11.9530192 45.7775,14.2495 C45.8547009,14.5491357 45.7890215,14.8676316 45.5995796,15.1122809 C45.4101378,15.3569302 45.1182212,15.5002414 44.8088,15.5005 L44.8086,15.5005 Z" id="Shape" fill="#428DFF"/><path d="M39,12 C36.790861,12 35,10.209139 35,8 C35,5.790861 36.790861,4 39,4 C41.209139,4 43,5.790861 43,8 C42.9976851,10.2081794 41.2081794,11.9976851 39,12 Z M39,6 C37.8954305,6 37,6.8954305 37,8 C37,9.1045695 37.8954305,10 39,10 C40.1045695,10 41,9.1045695 41,8 C40.9987325,6.89595593 40.1040441,6.00126747 39,6 Z" id="Shape" fill="#428DFF"/><path d="M29,23 C28.4477153,23 28,22.5522847 28,22 L28,21 C27.9995038,20.4479209 27.5520791,20.0004962 27,20 L21,20 C19.3438997,19.9981813 18.0018187,18.6561003 18,17 C18,16.4477153 18.4477153,16 19,16 C19.5522847,16 20,16.4477153 20,17 C20.0004962,17.5520791 20.4479209,17.9995038 21,18 L27,18 C28.6561003,18.0018187 29.9981813,19.3438997 30,21 L30,22 C30,22.2652165 29.8946432,22.5195704 29.7071068,22.7071068 C29.5195704,22.8946432 29.2652165,23 29,23 Z" id="Shape" fill="#428DFF"/><path d="M9,23 C8.44771525,23 8,22.5522847 8,22 L8,21 C8.00181871,19.3438997 9.34389967,18.0018187 11,18 L17,18 C17.5520791,17.9995038 17.9995038,17.5520791 18,17 C18,16.4477153 18.4477153,16 19,16 C19.5522847,16 20,16.4477153 20,17 C19.9981813,18.6561003 18.6561003,19.9981813 17,20 L11,20 C10.4479209,20.0004962 10.0004962,20.4479209 10,21 L10,22 C10,22.5522847 9.55228475,23 9,23 Z" id="Shape" fill="#428DFF"/><path d="M29,23 C28.4477153,23 28,22.5522847 28,22 L28,21 C28.0018187,19.3438997 29.3438997,18.0018187 31,18 L37,18 C37.5520791,17.9995038 37.9995038,17.5520791 38,17 C38,16.4477153 38.4477153,16 39,16 C39.5522847,16 40,16.4477153 40,17 C39.9981813,18.6561003 38.6561003,19.9981813 37,20 L31,20 C30.4479209,20.0004962 30.0004962,20.4479209 30,21 L30,22 C30,22.5522847 29.5522847,23 29,23 Z" id="Shape" fill="#428DFF"/><path d="M40,44 C39.4477153,44 39,43.5522847 39,43 L39,42 C38.9995038,41.4479209 38.5520791,41.0004962 38,41 L31,41 C29.3438997,40.9981813 28.0018187,39.6561003 28,38 C28,37.4477153 28.4477153,37 29,37 C29.5522847,37 30,37.4477153 30,38 C30.0004962,38.5520791 30.4479209,38.9995038 31,39 L38,39 C39.6561003,39.0018187 40.9981813,40.3438997 41,42 L41,43 C41,43.5522847 40.5522847,44 40,44 Z" id="Shape" fill="#428DFF"/><path d="M40,44 C39.4477153,44 39,43.5522847 39,43 L39,42 C39.0018187,40.3438997 40.3438997,39.0018187 42,39 L49,39 C49.5520791,38.9995038 49.9995038,38.5520791 50,38 C50,37.4477153 50.4477153,37 51,37 C51.5522847,37 52,37.4477153 52,38 C51.9981813,39.6561003 50.6561003,40.9981813 49,41 L42,41 C41.4479209,41.0004962 41.0004962,41.4479209 41,42 L41,43 C41,43.2652165 40.8946432,43.5195704 40.7071068,43.7071068 C40.5195704,43.8946432 40.2652165,44 40,44 Z" id="Shape" fill="#428DFF"/><path d="M41,31 L37,31 C36.4477153,31 36,30.5522847 36,30 C36,29.4477153 36.4477153,29 37,29 L41,29 C41.5522847,29 42,29.4477153 42,30 C42,30.5522847 41.5522847,31 41,31 Z" id="Shape" fill="#428DFF"/></g></g></svg>
