<svg height="512pt" viewBox="0 -38 512.05539 512" width="512pt" xmlns="http://www.w3.org/2000/svg"><path d="m469.703125 110.960938h-428.03125l2.386719-8.53125 15.105468-52.992188c4.738282-19.003906 21.804688-32.335938 41.386719-32.34375h61.441407c19.582031.007812 36.644531 13.339844 41.386718 32.34375l2.898438 10.324219h226.304687c16.832031.011719 31.140625 12.292969 33.707031 28.925781l2.132813 13.742188 1.023437 6.652343zm0 0" fill="#7fabfa"/><path d="m503.496094 129.050781-16.042969 213.335938c-.550781 13.734375-11.851563 24.585937-25.601563 24.574219h-411.648437c-13.746094.011718-25.050781-10.839844-25.597656-24.574219l-16.042969-213.335938c-.316406-7.332031 2.582031-14.4375 7.933594-19.453125 4.71875-4.621094 11.0625-7.195312 17.664062-7.167968h443.734375c6.96875-.007813 13.640625 2.828124 18.472657 7.855468 4.832031 5.023438 7.40625 11.800782 7.128906 18.765625zm0 0" fill="#a4c2f7"/><path d="m444.101562 110.960938h-428.03125l.425782-1.363282 1.964844-7.167968h25.597656l15.105468-52.992188c4.738282-19.003906 21.804688-32.335938 41.386719-32.34375h35.839844c19.582031.007812 36.648437 13.339844 41.386719 32.34375l2.902344 10.324219h226.300781c16.832031.011719 31.140625 12.292969 33.707031 28.925781l2.136719 13.742188zm0 0" fill="#a4c2f7"/><path d="m477.894531 129.050781-16.042969 213.335938c-.550781 13.734375-11.851562 24.585937-25.601562 24.574219h-386.046875c-13.746094.011718-25.050781-10.839844-25.597656-24.574219l-16.042969-213.335938c-.316406-7.332031 2.582031-14.4375 7.933594-19.453125l1.964844-7.167968h433.832031c6.960937.03125 13.609375 2.878906 18.433593 7.894531 4.820313 5.019531 7.40625 11.773437 7.167969 18.726562zm0 0" fill="#e3e7f2"/><path d="m324.292969 192.199219v230.910156c-2.265625.007813-4.441407-.882813-6.058594-2.472656l-53.671875-53.675781-36.609375-36.609376c-2.449219-2.429687-3.195313-6.097656-1.886719-9.289062 1.304688-3.195312 4.410156-5.285156 7.859375-5.300781h39.167969c.597656-5.035157.9375-10.070313 1.195312-15.191407.683594-11.910156.597657-23.851562-.257812-35.753906-.832031-14.179687-3.441406-28.199218-7.761719-41.726562-2.007812-6.222656-4.699219-12.207032-8.023437-17.835938-2.269532-3.671875-4.867188-7.125-7.765625-10.324218-3.242188-3.585938-5.800781-9.8125-1.023438-13.398438 1.789063-1.15625 3.847657-1.832031 5.972657-1.960938 8.683593-.910156 17.4375-.882812 26.113281.085938 8.355469.546875 16.625 2.003906 24.660156 4.351562 6.320313 2.042969 12.386719 4.789063 18.089844 8.191407zm0 0" fill="#e3e7f2"/><path d="m420.636719 330.351562-90.285157 90.285157c-1.613281 1.589843-3.789062 2.480469-6.058593 2.472656v-230.910156c3.722656 2.21875 7.257812 4.730469 10.582031 7.507812 7.683594 6.519531 14.253906 14.242188 19.457031 22.871094 4.988281 8.308594 9.023438 17.152344 12.03125 26.367187 2.855469 8.539063 4.996094 17.304688 6.402344 26.195313 1.234375 7.375 2.089844 14.8125 2.558594 22.273437.253906 4.863282.425781 9.726563.253906 14.59375 0 1.277344 0 2.472657-.082031 3.753907h39.167968c3.449219.015625 6.550782 2.105469 7.859376 5.300781 1.308593 3.191406.5625 6.859375-1.886719 9.289062zm0 0" fill="#d4e1f4"/><path d="m50.203125 342.386719-16.042969-213.335938c-.316406-7.332031 2.582032-14.4375 7.9375-19.453125l1.960938-7.167968h-25.597656l-1.964844 7.167968c-5.351563 5.015625-8.25 12.121094-7.933594 19.453125l16.042969 213.335938c.546875 13.734375 11.851562 24.585937 25.597656 24.574219h25.601563c-13.75.011718-25.050782-10.839844-25.601563-24.574219zm0 0" fill="#fff"/><path d="m69.660156 102.429688 15.105469-52.992188c4.738281-19.003906 21.800781-32.335938 41.382813-32.34375h-25.597657c-19.582031.007812-36.648437 13.339844-41.386719 32.34375l-15.105468 52.992188zm0 0" fill="#fff"/><path d="m16.097656 343.023438-8.320312-110.617188-7.7226565-102.714844 17.0156245-1.28125 7.722657 102.71875 8.320312 110.617188zm0 0" fill="#fff"/><g fill="#428dff"><path d="m477.894531 93.894531h-.851562l-2.304688-15.042969c-3.113281-20.847656-21.0625-36.25-42.140625-36.15625h-219.875l-1.09375-3.867187c-5.691406-22.792969-26.160156-38.7890625-49.65625-38.8007812h-61.4375c-23.414062-.0351563-43.851562 15.8515622-49.597656 38.5468752l-15.734375 55.320312h-1.042969c-9.296875-.007812-18.191406 3.777344-24.632812 10.476563-6.445313 6.703125-9.875 15.742187-9.5000002 25.03125.0195312.09375.0390624.1875.0703124.28125h-.0703124l8.3632812 111.222656c.4375 4.628906 4.5 8.054688 9.136719 7.707031 4.632812-.347656 8.136718-4.34375 7.878906-8.988281l-8.3125-110.964844c-.160156-4.632812 1.566406-9.128906 4.785156-12.464844 3.214844-3.335937 7.648438-5.226562 12.28125-5.234374h443.734375c4.660157-.011719 9.117188 1.898437 12.332031 5.273437 3.160157 3.25 4.871094 7.644531 4.734376 12.175781l-16.035157 213.660156c-.335937 9.167969-7.890625 16.410157-17.066406 16.359376h-57.230469l36.632813-36.636719c2.4375-2.4375 3.167969-6.109375 1.847656-9.296875s-4.429687-5.269532-7.882813-5.269532h-51.046874c-.152344-20.792968-3.921876-72.574218-35.609376-106.308593-19.675781-20.410157-47.152343-31.410157-75.476562-30.222657h-59.734375c-4.710937 0-8.53125 3.820313-8.53125 8.53125 0 4.714844 3.820313 8.535157 8.53125 8.535157 12.066406-.433594 23.679687 4.628906 31.574219 13.761719 23.894531 27.085937 21.914062 85.121093 20.351562 105.703124h-51.925781c-3.449219 0-6.558594 2.082032-7.878906 5.269532-1.320313 3.1875-.59375 6.859375 1.847656 9.296875l36.632813 36.636719h-193.757813c-9.171875.050781-16.730469-7.191407-17.066406-16.359376 0-.113281-.058594-.207031-.066407-.316406h.050782l-2.5625-34.039062c-.4375-4.628906-4.5-8.054688-9.132813-7.707032-4.636719.347657-8.140625 4.34375-7.882812 8.988282l2.5625 34.039062c.8125 18.214844 15.863281 32.542969 34.097656 32.460938h210.824219l57.234375 57.230468c3.332031 3.332032 8.734375 3.332032 12.066406 0l57.230469-57.230468h74.292968c18.25.136718 33.335938-14.195313 34.132813-32.429688l16.042969-213.664062c.375-9.289063-3.054688-18.328125-9.496094-25.03125-6.445312-6.699219-15.339844-10.484375-24.636719-10.476563zm-410.453125-50.917969c3.785156-15.199218 17.429688-25.867187 33.09375-25.882812h61.4375c15.753906.03125 29.449219 10.816406 33.167969 26.121094l2.902344 10.324218c.050781.179688.179687.300782.238281.480469.214844.542969.484375 1.0625.804688 1.550781.242187.457032.527343.894532.851562 1.296876.378906.390624.792969.742187 1.238281 1.050781.417969.324219.863281.609375 1.332031.851562.480469.214844.984376.378907 1.5.496094.554688.179687 1.128907.292969 1.707032.34375.1875 0 .339844.109375.53125.109375h226.351562c12.59375.074219 23.289063 9.246094 25.277344 21.683594l1.910156 12.492187h-406.851562zm256.851563 371.652344-53.691407-53.691406-36.640624-36.644531h39.132812c1.089844-.003907 2.167969-.222657 3.175781-.636719.320313-.171875.636719-.359375.9375-.566406.613281-.3125 1.183594-.695313 1.707031-1.140625.285157-.3125.546876-.644531.785157-.992188.40625-.472656.757812-.992187 1.050781-1.542969.171875-.433593.3125-.878906.417969-1.332031.171875-.40625.304687-.832031.398437-1.261719.445313-3.566406 10.523438-87.714843-23.78125-126.574218-.757812-.855469-1.527344-1.707032-2.3125-2.484375h17.621094c23.570312-1.089844 46.484375 7.925781 62.984375 24.789062 34.484375 36.648438 30.933594 102.023438 30.882813 102.679688v.265625.265625c.054687.480469.148437.960937.289062 1.425781.054688.550781.164062 1.097656.324219 1.628906.507812.953125 1.078125 1.871094 1.707031 2.746094.410156.390625.859375.738281 1.339844 1.035156.402344.324219.839844.609375 1.296875.851563.550781.210937 1.125.359375 1.707031.445312.441406.164063.894531.285157 1.355469.367188h.25c.085937 0 .160156.03125.265625.03125h39.132812zm0 0"/><path d="m76.828125 153.628906c4.710937 0 8.53125-3.820312 8.53125-8.535156 0-4.710938-3.820313-8.53125-8.53125-8.53125h-25.601563c-4.710937 0-8.53125 3.820312-8.53125 8.53125 0 4.714844 3.820313 8.535156 8.53125 8.535156zm0 0"/><path d="m179.226562 153.628906c4.714844 0 8.535157-3.820312 8.535157-8.535156 0-4.710938-3.820313-8.53125-8.535157-8.53125h-68.265624c-4.710938 0-8.535157 3.820312-8.535157 8.53125 0 4.714844 3.824219 8.535156 8.535157 8.535156zm0 0"/><path d="m15.25 281.730469c.5.289062 1.03125.507812 1.589844.65625.5.207031 1.027344.339843 1.570312.394531.566406.050781 1.136719.0625 1.703125.042969 2.253907-.207031 4.34375-1.25 5.855469-2.929688 2.957031-3.628906 2.5625-8.933593-.902344-12.082031-.871094-.699219-1.871094-1.222656-2.9375-1.542969-1.054687-.363281-2.171875-.511719-3.285156-.445312-2.25.203125-4.339844 1.25-5.855469 2.925781-2.992187 3.59375-2.59375 8.917969.90625 12.023438zm0 0"/></g></svg>