<?xml version="1.0" encoding="iso-8859-1"?>
<!-- Generator: Adobe Illustrator 19.0.0, SVG Export Plug-In . SVG Version: 6.00 Build 0)  -->
<svg version="1.1" id="Capa_1" xmlns="http://www.w3.org/2000/svg" xmlns:xlink="http://www.w3.org/1999/xlink" x="0px" y="0px"
	 viewBox="0 0 512 512" style="enable-background:new 0 0 512 512;" xml:space="preserve">
<g>
	<g transform="translate(0 1)">
		<rect x="230.4" y="374.467" style="fill:#E3E7F2;" width="51.2" height="85.333"/>
		<path style="fill:#A4C2F7;" d="M503.125,324.803H17.067L92.788,42.264h0.084C96.431,22.258,113.77,7.647,134.09,7.533h251.844
			c20.32,0.114,37.659,14.725,41.218,34.731h0.168L503.125,324.803z"/>
		<path style="fill:#E3E7F2;" d="M477.867,324.803H34.133l76.971-282.539h0.085c3.79-20.15,21.395-34.743,41.899-34.731h205.653
			c20.504-0.013,38.108,14.58,41.899,34.731h0.256L477.867,324.803z"/>
		<path style="fill:#7FACFA;" d="M503.467,331.8v17.067c0.775,22.737-16.989,41.817-39.724,42.667H82.391
			c-22.735-0.849-40.499-19.929-39.724-42.667V331.8c-0.775-22.737,16.989-41.817,39.724-42.667h381.352
			C486.477,289.983,504.242,309.063,503.467,331.8L503.467,331.8z"/>
		<path style="fill:#FFFFFF;" d="M469.333,331.8v17.067c0.775,22.737-16.989,41.817-39.724,42.667H48.257
			c-22.735-0.849-40.499-19.929-39.724-42.667V331.8c-0.775-22.737,16.989-41.817,39.724-42.667h381.352
			C452.344,289.983,470.108,309.063,469.333,331.8z"/>
		
			<linearGradient id="SVGID_1_" gradientUnits="userSpaceOnUse" x1="-48.6699" y1="651.3573" x2="-48.1093" y2="648.9279" gradientTransform="matrix(443.764 0 0 -102.4 21729.5449 66914.9453)">
			<stop  offset="0" style="stop-color:#D4E1F4"/>
			<stop  offset="0.1717" style="stop-color:#D4E1F4"/>
			<stop  offset="0.2" style="stop-color:#D4E1F4"/>
			<stop  offset="0.2001" style="stop-color:#DAE4F4"/>
			<stop  offset="0.2007" style="stop-color:#EBEBF4"/>
			<stop  offset="0.2014" style="stop-color:#F6F1F4"/>
			<stop  offset="0.2023" style="stop-color:#FDF4F4"/>
			<stop  offset="0.205" style="stop-color:#FFF5F4"/>
			<stop  offset="0.2522" style="stop-color:#FFF5F4"/>
			<stop  offset="0.26" style="stop-color:#FFF5F4"/>
			<stop  offset="0.26" style="stop-color:#D4E1F4"/>
			<stop  offset="0.3974" style="stop-color:#D4E1F4"/>
			<stop  offset="0.42" style="stop-color:#D4E1F4"/>
			<stop  offset="0.4201" style="stop-color:#DAE4F4"/>
			<stop  offset="0.4207" style="stop-color:#EBEBF4"/>
			<stop  offset="0.4214" style="stop-color:#F6F1F4"/>
			<stop  offset="0.4223" style="stop-color:#FDF4F4"/>
			<stop  offset="0.425" style="stop-color:#FFF5F4"/>
			<stop  offset="0.4894" style="stop-color:#FFF5F4"/>
			<stop  offset="0.5" style="stop-color:#FFF5F4"/>
			<stop  offset="0.5" style="stop-color:#F9F2F4"/>
			<stop  offset="0.5001" style="stop-color:#E8EBF4"/>
			<stop  offset="0.5003" style="stop-color:#DDE5F4"/>
			<stop  offset="0.5005" style="stop-color:#D6E2F4"/>
			<stop  offset="0.501" style="stop-color:#D4E1F4"/>
			<stop  offset="0.7062" style="stop-color:#D4E1F4"/>
			<stop  offset="0.74" style="stop-color:#D4E1F4"/>
			<stop  offset="0.741" style="stop-color:#FFF5F4"/>
			<stop  offset="0.8346" style="stop-color:#FFF5F4"/>
			<stop  offset="0.85" style="stop-color:#FFF5F4"/>
			<stop  offset="0.851" style="stop-color:#D4E1F4"/>
		</linearGradient>
		<path style="fill:url(#SVGID_1_);" d="M477.867,331.8v17.067c0.616,22.911-17.43,41.998-40.339,42.667H74.473
			c-22.91-0.669-40.955-19.755-40.339-42.667V331.8c-0.616-22.911,17.43-41.998,40.339-42.667h363.055
			C460.437,289.802,478.483,308.889,477.867,331.8z"/>
		<path style="fill:#A4C2F7;" d="M325.165,75.333c-8.007-4.284-16.435-7.73-25.151-10.28c-28.738-8.425-59.29-8.425-88.028,0
			c-8.716,2.551-17.144,5.996-25.151,10.28c-30.433,16.175-50.302,42.867-50.302,73.001c0,49.469,53.509,89.6,119.467,89.6
			s119.467-40.131,119.467-89.6C375.467,118.199,355.598,91.508,325.165,75.333z"/>
		<path style="fill:#E3E7F2;" d="M304.954,75.333c-7.079-4.252-14.611-7.701-22.456-10.28c-25.521-8.425-53.075-8.425-78.596,0
			c-7.845,2.58-15.377,6.028-22.456,10.28c-26.882,14.621-43.981,42.414-44.912,73.001c0,49.469,47.775,89.6,106.667,89.6
			s106.667-40.131,106.667-89.6C348.936,117.747,331.837,89.954,304.954,75.333z"/>
		<path style="fill:#FFFFFF;" d="M153.088,7.533c-20.504-0.013-38.108,14.58-41.899,34.731h-0.085L34.133,324.803H9.045
			L86.016,42.264h0.085C89.892,22.114,107.496,7.521,128,7.533H153.088z"/>
		<g>
			<path style="fill:#E3E7F2;" d="M452.267,451.267H59.733c-9.426,0-17.067,7.641-17.067,17.067S50.308,485.4,59.733,485.4h392.533
				c9.426,0,17.067-7.641,17.067-17.067S461.692,451.267,452.267,451.267z"/>
			<circle style="fill:#E3E7F2;" cx="76.8" cy="340.333" r="17.067"/>
		</g>
		<path style="fill:#7FACFA;" d="M179.2,434.2h153.6c9.426,0,17.067,7.641,17.067,17.067V485.4c0,9.426-7.641,17.067-17.067,17.067
			H179.2c-9.426,0-17.067-7.641-17.067-17.067v-34.133C162.133,441.841,169.774,434.2,179.2,434.2z"/>
		<g>
			<path style="fill:#A4C2F7;" d="M309.527,434.2H176.873c-8.76,0.688-15.334,8.3-14.739,17.067V485.4
				c-0.594,8.767,5.979,16.378,14.739,17.067h132.655c8.76-0.688,15.334-8.3,14.739-17.067v-34.133
				C324.861,442.5,318.287,434.888,309.527,434.2L309.527,434.2z"/>
			<polygon style="fill:#A4C2F7;" points="256,203.8 196.267,152.028 238.933,152.028 238.933,92.867 273.067,92.867 
				273.067,152.028 315.733,152.028 			"/>
		</g>
	</g>
	<g>
		<circle style="fill:#428DFF;" cx="71.108" cy="95.292" r="8.533"/>
		<path style="fill:#428DFF;" d="M9.05,334.342c-2.659-0.003-5.165-1.243-6.781-3.356s-2.155-4.856-1.461-7.423l53.767-197.379
			c1.268-4.511,5.936-7.156,10.457-5.925c4.521,1.231,7.204,5.878,6.01,10.409L17.275,328.046
			C16.264,331.757,12.897,334.335,9.05,334.342z"/>
		<path style="fill:#428DFF;" d="M503.117,334.342c-3.846-0.005-7.214-2.581-8.225-6.292l-76.65-281.062
			c-0.347-0.685-0.594-1.416-0.733-2.171c-3.021-16.117-17.11-27.786-33.508-27.75H128c-16.398-0.036-30.488,11.633-33.508,27.75
			c-0.117,0.624-0.302,1.233-0.55,1.817l-4.983,18.175c-1.255,4.538-5.947,7.203-10.487,5.958s-7.216-5.931-5.98-10.474
			l5.292-19.287c0.058-0.183,0.108-0.367,0.175-0.546C82.984,16.843,103.855-0.032,128,0h256
			c23.962-0.032,44.728,16.591,49.942,39.979c0.141,0.338,0.26,0.685,0.358,1.037l77.058,282.542
			c0.695,2.568,0.156,5.312-1.459,7.426C508.284,333.098,505.777,334.339,503.117,334.342L503.117,334.342z"/>
		<path style="fill:#428DFF;" d="M460.8,401.067H51.2c-28.264-0.031-51.169-22.936-51.2-51.2V332.8
			c0.031-28.264,22.936-51.169,51.2-51.2h409.6c28.264,0.031,51.169,22.936,51.2,51.2v17.067
			C511.969,378.131,489.064,401.036,460.8,401.067z M51.2,298.667c-18.843,0.02-34.113,15.29-34.133,34.133v17.067
			C17.087,368.71,32.357,383.98,51.2,384h409.6c18.843-0.02,34.113-15.29,34.133-34.133V332.8
			c-0.02-18.843-15.29-34.113-34.133-34.133H51.2z"/>
		<path style="fill:#428DFF;" d="M76.8,366.933c-14.138,0-25.6-11.462-25.6-25.6c0-14.138,11.462-25.6,25.6-25.6
			s25.6,11.462,25.6,25.6C102.385,355.465,90.932,366.918,76.8,366.933L76.8,366.933z M76.8,332.8c-4.713,0-8.533,3.821-8.533,8.533
			s3.821,8.533,8.533,8.533c4.713,0,8.533-3.82,8.533-8.533C85.329,336.623,81.511,332.805,76.8,332.8L76.8,332.8z"/>
		<path style="fill:#428DFF;" d="M315.733,401.067c-2.263,0.001-4.434-0.898-6.035-2.499c-1.6-1.6-2.499-3.771-2.499-6.035v-51.2
			c0-4.713,3.82-8.533,8.533-8.533s8.533,3.821,8.533,8.533v51.2c0.001,2.263-0.898,4.434-2.499,6.035
			C320.168,400.168,317.997,401.067,315.733,401.067z"/>
		<path style="fill:#428DFF;" d="M349.867,401.067c-2.263,0.001-4.434-0.898-6.035-2.499c-1.6-1.6-2.499-3.771-2.499-6.035v-51.2
			c0-4.713,3.82-8.533,8.533-8.533s8.533,3.821,8.533,8.533v51.2c0.001,2.263-0.898,4.434-2.499,6.035
			C354.301,400.168,352.13,401.067,349.867,401.067z"/>
		<path style="fill:#428DFF;" d="M384,401.067c-2.263,0.001-4.434-0.898-6.035-2.499c-1.6-1.6-2.499-3.771-2.499-6.035v-51.2
			c0-4.713,3.821-8.533,8.533-8.533c4.713,0,8.533,3.821,8.533,8.533v51.2c0.001,2.263-0.898,4.434-2.499,6.035
			S386.263,401.067,384,401.067z"/>
		<path style="fill:#428DFF;" d="M418.133,401.067c-2.263,0.001-4.434-0.898-6.035-2.499s-2.499-3.771-2.499-6.035v-51.2
			c0-4.713,3.821-8.533,8.533-8.533c4.713,0,8.533,3.821,8.533,8.533v51.2c0.001,2.263-0.898,4.434-2.499,6.035
			S420.397,401.067,418.133,401.067L418.133,401.067z"/>
		<path style="fill:#428DFF;" d="M281.6,443.733h-51.2c-2.263,0.001-4.434-0.898-6.035-2.499c-1.6-1.6-2.499-3.771-2.499-6.035
			v-42.667c-0.001-2.263,0.898-4.434,2.499-6.035c1.6-1.6,3.771-2.499,6.035-2.499h51.2c2.263-0.001,4.434,0.898,6.035,2.499
			c1.6,1.6,2.499,3.771,2.499,6.035V435.2c0.001,2.263-0.898,4.434-2.499,6.035C286.034,442.835,283.863,443.734,281.6,443.733z
			 M238.933,426.667h34.133v-25.6h-34.133V426.667z"/>
		<path style="fill:#428DFF;" d="M332.8,512H179.2c-14.132-0.015-25.585-11.468-25.6-25.6v-34.133
			c0.015-14.132,11.468-25.585,25.6-25.6h153.6c14.132,0.015,25.585,11.468,25.6,25.6V486.4
			C358.385,500.532,346.932,511.985,332.8,512L332.8,512z M179.2,443.733c-4.711,0.005-8.529,3.822-8.533,8.533V486.4
			c0.005,4.711,3.822,8.529,8.533,8.533h153.6c4.711-0.005,8.529-3.822,8.533-8.533v-34.133c-0.005-4.711-3.822-8.529-8.533-8.533
			H179.2z"/>
		<path style="fill:#428DFF;" d="M162.133,494.933h-102.4c-14.138,0-25.6-11.462-25.6-25.6s11.462-25.6,25.6-25.6h102.4
			c2.263-0.001,4.434,0.898,6.035,2.499c1.6,1.6,2.499,3.771,2.499,6.035V486.4c0.001,2.263-0.898,4.434-2.499,6.035
			C166.568,494.035,164.397,494.934,162.133,494.933L162.133,494.933z M59.733,460.8c-4.713,0-8.533,3.82-8.533,8.533
			s3.821,8.533,8.533,8.533H153.6V460.8H59.733z"/>
		<path style="fill:#428DFF;" d="M452.267,494.933h-102.4c-2.263,0.001-4.434-0.898-6.035-2.499c-1.6-1.6-2.499-3.771-2.499-6.035
			v-34.133c-0.001-2.263,0.898-4.434,2.499-6.035c1.6-1.6,3.771-2.499,6.035-2.499h102.4c14.138,0,25.6,11.462,25.6,25.6
			S466.405,494.933,452.267,494.933L452.267,494.933z M358.4,477.867h93.867c4.713,0,8.533-3.82,8.533-8.533
			s-3.82-8.533-8.533-8.533H358.4V477.867z"/>
		<path style="fill:#428DFF;" d="M256,213.333c-2.054,0-4.039-0.739-5.592-2.083l-59.733-51.771
			c-2.689-2.335-3.646-6.094-2.401-9.431c1.245-3.337,4.431-5.55,7.993-5.552H230.4V93.867c-0.001-2.263,0.898-4.434,2.499-6.035
			c1.6-1.6,3.771-2.499,6.035-2.499h34.133c2.263-0.001,4.434,0.898,6.035,2.499c1.6,1.6,2.499,3.771,2.499,6.035v50.629h34.133
			c3.561,0.002,6.747,2.216,7.993,5.552c1.245,3.337,0.288,7.096-2.401,9.431l-59.733,51.771
			C260.039,212.594,258.054,213.334,256,213.333z M219.142,161.563L256,193.508l36.858-31.946h-19.792
			c-2.263,0.001-4.434-0.898-6.035-2.499s-2.499-3.771-2.499-6.035V102.4h-17.067v50.629c0.001,2.263-0.898,4.434-2.499,6.035
			c-1.6,1.6-3.771,2.499-6.035,2.499H219.142z"/>
		<path style="fill:#428DFF;" d="M256,247.467c-4.875,0-9.292-0.179-13.492-0.554C177.267,241.8,128,199.846,128,149.333
			s49.267-92.467,114.592-97.587c8.952-0.739,17.949-0.736,26.9,0.009C334.733,56.867,384,98.821,384,149.333
			s-49.267,92.467-114.592,97.587C265.292,247.288,260.875,247.467,256,247.467z M256,68.267c-4.033,0-8.05,0.137-11.992,0.488
			c-56.442,4.425-98.942,39.063-98.942,80.579s42.5,76.154,98.859,80.571c8.006,0.711,16.06,0.714,24.067,0.009
			c56.441-4.425,98.941-39.063,98.941-80.579s-42.5-76.154-98.859-80.571C264.05,68.404,260.033,68.267,256,68.267z"/>
	</g>
</g>
<g>
</g>
<g>
</g>
<g>
</g>
<g>
</g>
<g>
</g>
<g>
</g>
<g>
</g>
<g>
</g>
<g>
</g>
<g>
</g>
<g>
</g>
<g>
</g>
<g>
</g>
<g>
</g>
<g>
</g>
</svg>
