<?xml version="1.0" encoding="iso-8859-1"?>
<!-- Generator: Adobe Illustrator 19.0.0, SVG Export Plug-In . SVG Version: 6.00 Build 0)  -->
<svg version="1.1" id="Layer_1" xmlns="http://www.w3.org/2000/svg" xmlns:xlink="http://www.w3.org/1999/xlink" x="0px" y="0px"
	 viewBox="0 0 512.001 512.001" style="enable-background:new 0 0 512.001 512.001;" xml:space="preserve">
<path style="fill:#8AE9FF;" d="M109.143,147.259c33.057-33.057,75.295-53.596,120.964-59.24l-22.054-22.054
	c-12.762-12.762-12.762-33.452,0-46.213c12.762-12.762,33.452-12.762,46.213,0l79.303,79.303c12.762,12.762,12.762,33.452,0,46.213
	l-79.303,79.303c-6.381,6.381-14.744,9.571-23.107,9.571c-8.364,0-16.726-3.19-23.107-9.571c-12.762-12.762-12.762-33.452,0-46.213
	l24.656-24.656c-67.44,11.149-119.04,69.864-119.04,140.414c0,78.481,63.85,142.33,142.33,142.33s142.33-63.85,142.33-142.33
	c0-18.047,14.63-32.677,32.677-32.677c18.047,0,32.678,14.63,32.678,32.677c0,55.476-21.603,107.629-60.831,146.856
	c-39.227,39.227-91.381,60.83-146.856,60.83s-107.629-21.603-146.856-60.83c-39.227-39.227-60.83-91.381-60.83-146.856
	S69.916,186.485,109.143,147.259z"/>
<g>
	<path style="fill:#248A9C;" d="M255.999,512.001c-58.2,0-112.916-22.665-154.069-63.818
		c-41.153-41.152-63.817-95.868-63.817-154.068s22.665-112.916,63.818-154.069l0,0c29.858-29.858,66.539-49.939,107.017-58.762
		l-8.108-8.107c-8.098-8.098-12.559-18.866-12.559-30.319s4.46-22.221,12.559-30.319c16.718-16.717,43.921-16.718,60.638,0
		l79.303,79.302c8.099,8.098,12.559,18.866,12.559,30.319s-4.46,22.221-12.559,30.319l-79.302,79.302
		c-8.098,8.098-18.866,12.559-30.319,12.559c-11.453,0-22.221-4.46-30.319-12.559c-15.206-15.206-16.581-39.084-4.127-55.858
		c-43.8,21.835-72.845,66.85-72.845,118.191c0,72.858,59.274,132.131,132.131,132.131s132.131-59.274,132.131-132.131
		c0-23.643,19.234-42.877,42.878-42.877c23.644,0,42.878,19.234,42.878,42.877c0,58.2-22.665,112.916-63.818,154.069
		C368.915,489.336,314.199,512.001,255.999,512.001z M231.16,20.39c-5.757,0-11.512,2.191-15.894,6.574
		c-4.246,4.245-6.584,9.891-6.584,15.894s2.338,11.649,6.584,15.894l22.054,22.054c2.756,2.757,3.7,6.843,2.433,10.529
		c-1.268,3.686-4.526,6.328-8.394,6.805c-43.797,5.413-83.565,24.891-115.003,56.329l0,0c-37.3,37.3-57.842,86.893-57.842,139.644
		s20.542,102.344,57.842,139.644C153.655,471.057,203.249,491.6,256,491.6s102.344-20.542,139.644-57.842
		c37.301-37.3,57.843-86.894,57.843-139.645c0-12.395-10.084-22.478-22.479-22.478s-22.479,10.083-22.479,22.478
		c0,84.105-68.424,152.53-152.53,152.53s-152.53-68.425-152.53-152.53c0-36.313,13.028-71.514,36.685-99.12
		c23.391-27.296,55.671-45.535,90.892-51.358c4.373-0.722,8.711,1.461,10.735,5.402c2.026,3.941,1.274,8.74-1.859,11.873
		l-24.656,24.656c-8.765,8.765-8.765,23.025,0,31.789c4.245,4.246,9.891,6.584,15.894,6.584c6.003,0,11.649-2.338,15.894-6.584
		l79.302-79.302c4.246-4.246,6.585-9.891,6.585-15.894c0-6.003-2.338-11.648-6.584-15.894l-79.303-79.302
		C242.673,22.582,236.916,20.39,231.16,20.39z"/>
	<path style="fill:#248A9C;" d="M265.179,185.143c-2.61,0-5.221-0.995-7.212-2.987c-3.983-3.983-3.983-10.441,0-14.425l1.57-1.57
		c3.983-3.983,10.441-3.983,14.425,0c3.983,3.983,3.983,10.441,0,14.425l-1.57,1.57C270.4,184.148,267.789,185.143,265.179,185.143z
		"/>
	<path style="fill:#248A9C;" d="M288.8,161.584c-2.61,0-5.22-0.995-7.212-2.987c-3.983-3.983-3.984-10.441,0-14.424l25.948-25.949
		c3.983-3.983,10.441-3.984,14.424,0c3.983,3.984,3.984,10.441,0,14.424l-25.948,25.949
		C294.02,160.588,291.41,161.584,288.8,161.584z"/>
</g>
<g>
</g>
<g>
</g>
<g>
</g>
<g>
</g>
<g>
</g>
<g>
</g>
<g>
</g>
<g>
</g>
<g>
</g>
<g>
</g>
<g>
</g>
<g>
</g>
<g>
</g>
<g>
</g>
<g>
</g>
</svg>
