<svg height="511pt" viewBox="1 -16 511.999 511" width="511pt" xmlns="http://www.w3.org/2000/svg"><path d="m239.75 403.152344c-89.964844 0-162.898438-72.933594-162.898438-162.902344s72.933594-162.902344 162.898438-162.902344v.042969c89.28125 0 161.789062 71.804687 162.925781 160.8125h-25.417969l60.15625 85.613281 60.152344-85.613281c-34.785156 0-22.992187-.058594-25.492187 0-1.144531-127.332031-104.71875-230.203125-232.324219-230.203125-128.265625 0-232.25 103.980469-232.25 232.25 0 128.273438 103.984375 232.253906 232.25 232.253906zm0 0" fill="#96d1f3"/><path d="m37.496094 240.25c0-123.230469 95.980468-224.027344 217.257812-231.757812-4.960937-.3125-9.960937-.492188-15.003906-.492188-128.265625 0-232.25 103.980469-232.25 232.25s103.984375 232.25 232.25 232.25v-1.921875c-114.097656-14.714844-202.253906-112.222656-202.253906-230.328125zm0 0" fill="#3ca6e6"/><path d="m259.75 50.574219h-15v-14.996094h15zm-25 0h-14.996094v-14.996094h14.996094zm0 0" fill="#fff"/><path d="m479.390625 230.679688c-2.394531-60.800782-27.363281-117.609376-70.78125-160.660157-45.214844-44.832031-105.183594-69.519531-168.859375-69.519531-64.039062 0-124.246094 24.9375-169.527344 70.222656-45.285156 45.28125-70.222656 105.488282-70.222656 169.527344s24.9375 124.246094 70.222656 169.53125c45.28125 45.28125 105.488282 70.222656 169.527344 70.222656h7.5v-84.351562h-7.5c-80.730469 0-148.792969-62.976563-154.941406-143.375l-14.953125 1.144531c6.539062 85.496094 76.105469 153.3125 162.398437 157.066406v54.390625c-120.472656-3.972656-217.253906-103.210937-217.253906-224.628906 0-123.929688 100.824219-224.75 224.75-224.75 122.140625 0 222.539062 98.777344 224.792969 220.621094l-1.167969 1.945312 1.195312 2.113282v5.6875c5.679688-.125 7.734376-.167969 7.929688-.175782l7.140625.1875v-.183594h3.492187l-45.71875 65.074219-45.722656-65.066406h18.578125l-.097656-7.597656c-.574219-45.058594-18.558594-87.328125-50.636719-119.023438-30.320312-29.957031-69.949218-47.207031-112.285156-49.03125v-.199219h-7.5c-88.570312 0-161.785156 67.722657-169.683594 154.820313l14.9375 1.355469c7.1875-79.273438 71.839844-139.34375 151.101563-141.136719h3.644531c82.074219 0 150.132812 64.734375 155.140625 145.8125h-32.066406l74.585937 106.15625 74.589844-106.15625c-33.246094 0-32.335938.003906-32.609375-.023437zm0 0"/></svg>